*
G04 Job   : F:\ECADdesigns\1405165-01-00-A\PCB\1405165-01-00-A.pcb*
G04 User  : AT01PC650:at10682*
G04 Layer : Soldermask_Bottom.gbr*
G04 Date  : Tue May 09 13:27:59 2023*
G04 Soldermask Bottom*
%ICAS*%
%MOMM*%
%FSLAX54Y54*%
%OFA0.0000B0.0000*%
G90*
G74*
%AMVB_RECTANGLE*
21,1,$1,$2,0,0,$3*
%
%AMVB_RCRECTANGLE*
$3=$3X2*
21,1,$1-$3,$2,0,0,0*
21,1,$1,$2-$3,0,0,0*
$1=$1/2*
$2=$2/2*
$3=$3/2*
$1=$1-$3*
$2=$2-$3*
1,1,$3X2,0-$1,0-$2*
1,1,$3X2,0-$1,$2*
1,1,$3X2,$1,$2*
1,1,$3X2,$1,0-$2*
%
%ADD14C,0.00500*%
%ADD10C,0.01000*%
%ADD13C,0.50000*%
%ADD12C,0.60000*%
%ADD24C,1.65000*%
%ADD72C,1.76000*%
%ADD28C,1.86000*%
%ADD71C,1.96000*%
%ADD27C,2.06000*%
%ADD25C,2.36000*%
%ADD11C,3.40000*%
%ADD29C,4.86000*%
%ADD70C,6.51000*%
%ADD21O,4.61000X1.91000*%
%ADD20O,4.61000X2.11000*%
%ADD22O,2.11000X4.61000*%
%ADD18VB_RECTANGLE,2.00000X2.00000X0.00000*%
%ADD17VB_RCRECTANGLE,1.06000X0.81000X0.23000*%
%ADD16VB_RCRECTANGLE,0.81000X1.06000X0.23000*%
%ADD23VB_RCRECTANGLE,1.31000X0.51000X0.18000*%
%ADD26VB_RCRECTANGLE,0.51000X1.31000X0.18000*%
%ADD15VB_RCRECTANGLE,1.46000X1.01000X0.28000*%
%ADD19VB_RCRECTANGLE,1.01000X1.46000X0.28000*%
G01*
G54D10*
X1150000D01*
Y1200000*
X0*
Y0*
G54D11*
X60000Y540000D03*
Y1005000D03*
X1100000Y50000D03*
Y1145000D03*
G54D12*
X0Y0D02*
X1150000D01*
Y1200000*
X0*
Y0*
G54D13*
X-183520Y165492D02*
X-183460Y165252D01*
X-183340Y165102*
X-183130Y165042*
X-182890Y165012*
X-182680Y165042*
X-182470Y165102*
X-182350Y165252*
X-182290Y165492*
Y170742*
X-154780*
Y165492*
X-154720Y165252*
X-154570Y165102*
X-154360Y165042*
X-154120Y165012*
X-153910Y165042*
X-153730Y165102*
X-153580Y165252*
X-153520Y165492*
Y177192*
X-153580Y177402*
X-153730Y177582*
X-153910Y177672*
X-154120Y177702*
X-154360Y177672*
X-154570Y177582*
X-154720Y177402*
X-154780Y177192*
Y171912*
X-182920*
X-183130Y171852*
X-183310Y171732*
X-183460Y171582*
X-183520Y171342*
Y165492*
X-182920Y256182D02*
X-183130Y256122D01*
X-183310Y255972*
X-183400Y255792*
X-183430Y255582*
X-183400Y255372*
X-183310Y255162*
X-183130Y255012*
X-182920Y254982*
X-173230*
Y247632*
X-173170Y247422*
X-173050Y247272*
X-172840Y247182*
X-172630*
X-172420*
X-172210Y247272*
X-172090Y247422*
X-172030Y247632*
Y254982*
X-156160*
X-156010Y255012*
X-155860Y255102*
X-155770Y255162*
X-155710Y255282*
X-153640Y258282*
X-153550Y258402*
X-153520Y258582*
Y262602*
X-153550Y262782*
X-153640Y262932*
X-155710Y265932*
X-155860Y266112*
X-156040Y266172*
X-156250Y266142*
X-156460Y266022*
X-156610Y265872*
X-156730Y265722*
X-156760Y265512*
X-156670Y265302*
X-154750Y262422*
Y258702*
X-156460Y256182*
X-172030*
Y263592*
X-172090Y263802*
X-172210Y263982*
X-172420Y264072*
X-172630Y264102*
X-172840Y264072*
X-173050Y263982*
X-173170Y263802*
X-173230Y263592*
Y256182*
X-182920*
X-182290Y27552D02*
Y41892D01*
X-178510Y46572*
X-172930*
X-169120Y41892*
Y27552*
X-182290*
Y103842D02*
X-182350Y104052D01*
X-182470Y104232*
X-182680Y104322*
X-182890Y104352*
X-183130Y104322*
X-183340Y104232*
X-183460Y104052*
X-183520Y103842*
Y83592*
X-183460Y83382*
X-183310Y83202*
X-183130Y83052*
X-182920Y82992*
X-154120*
X-153910Y83052*
X-153730Y83202*
X-153640Y83382*
X-153610Y83592*
X-153640Y83832*
X-153730Y84042*
X-153910Y84192*
X-154120Y84252*
X-169270*
Y97842*
X-169300Y98052*
X-169450Y98232*
X-169660Y98322*
X-169870Y98352*
X-170110Y98322*
X-170320Y98232*
X-170440Y98052*
X-170500Y97842*
Y84252*
X-182290*
Y103842*
Y153642D02*
X-182350Y153852D01*
X-182470Y154032*
X-182680Y154122*
X-182890Y154152*
X-183130Y154122*
X-183340Y154032*
X-183460Y153852*
X-183520Y153642*
Y133392*
X-183460Y133182*
X-183310Y133002*
X-183130Y132852*
X-182920Y132792*
X-154120*
X-153910Y132852*
X-153730Y133002*
X-153580Y133182*
X-153520Y133392*
Y153642*
X-153580Y153852*
X-153730Y154032*
X-153910Y154122*
X-154120Y154152*
X-154360Y154122*
X-154570Y154032*
X-154720Y153852*
X-154780Y153642*
Y134052*
X-167920*
Y147642*
X-167980Y147852*
X-168130Y148032*
X-168310Y148122*
X-168520Y148152*
X-168730Y148122*
X-168940Y148032*
X-169090Y147852*
X-169120Y147642*
Y134052*
X-182290*
Y153642*
X-174970Y195042D02*
X-174940Y203172D01*
X-174910Y203292*
X-174880Y203412*
X-174790Y203592*
X-168730Y209682*
X-168580Y209712*
X-168460Y209742*
X-168400*
Y209772*
X-168250Y209802*
X-166240*
X-166030Y209772*
X-165850Y209622*
X-165700Y209472*
X-165640Y209202*
Y189612*
X-158440*
X-154720Y195192*
Y202872*
X-160630Y208782*
X-160750Y208962*
Y209172*
X-160690Y209412*
X-160540Y209592*
X-160360Y209712*
X-160150Y209802*
X-159910*
X-159730Y209682*
X-153700Y203592*
X-153580Y203412*
X-153550Y203292*
X-153520Y203172*
Y195042*
X-153550Y194862*
X-153640Y194712*
X-157660Y188682*
X-157720Y188562*
X-157840Y188502*
X-157990Y188412*
X-158140Y188382*
X-170320*
X-170470Y188412*
X-170620Y188502*
X-170710Y188562*
X-170740Y188592*
X-170800Y188682*
X-174820Y194712*
X-174940Y194862*
X-174970Y195042*
X-174130Y233712D02*
X-174280Y233922D01*
X-174460Y233982*
X-174670*
X-174880Y233892*
X-175060Y233772*
X-175210Y233592*
X-175240Y233472*
X-175270Y233382*
X-175240Y233262*
X-175210Y233142*
X-167440Y217902*
X-182920*
X-183130Y217842*
X-183310Y217692*
X-183400Y217482*
X-183430Y217242*
X-183400Y217032*
X-183310Y216852*
X-183130Y216702*
X-182920Y216642*
X-154120*
X-153880Y216702*
X-153730Y216852*
X-153640Y217032*
X-153610Y217242*
X-153640Y217482*
X-153730Y217692*
X-153880Y217842*
X-154120Y217902*
X-166060*
X-167800Y221202*
X-153670Y237102*
X-153550Y237282*
Y237492*
X-153640Y237672*
X-153760Y237852*
X-153940Y237972*
X-154180Y238032*
X-154390*
X-154570Y237912*
X-168400Y222342*
X-174130Y233712*
Y401172D02*
X-174280Y401382D01*
X-174460Y401442*
X-174670*
X-174880Y401352*
X-175060Y401232*
X-175210Y401052*
X-175240Y400932*
X-175270Y400842*
X-175240Y400722*
X-175210Y400602*
X-167440Y385362*
X-182920*
X-183130Y385302*
X-183310Y385152*
X-183400Y384942*
X-183430Y384702*
X-183400Y384492*
X-183310Y384312*
X-183130Y384162*
X-182920Y384102*
X-154120*
X-153880Y384162*
X-153730Y384312*
X-153640Y384492*
X-153610Y384702*
X-153640Y384942*
X-153730Y385152*
X-153880Y385302*
X-154120Y385362*
X-166060*
X-167800Y388662*
X-153670Y404562*
X-153550Y404742*
Y404952*
X-153640Y405132*
X-153760Y405312*
X-153940Y405432*
X-154180Y405492*
X-154390*
X-154570Y405372*
X-168400Y389802*
X-174130Y401172*
X-172120Y47562D02*
X-172180Y47652D01*
X-172330Y47682*
X-172480Y47742*
X-172630Y47772*
X-178810*
X-178960Y47742*
X-179050Y47682*
X-179140*
X-179170Y47652*
X-179200Y47592*
X-179290Y47562*
X-183400Y42462*
X-183460Y42312*
X-183490Y42192*
X-183520Y42072*
Y26952*
X-183460Y26682*
X-183310Y26502*
X-183130Y26352*
X-182920Y26292*
X-154120*
X-153880Y26352*
X-153730Y26502*
X-153640Y26682*
X-153610Y26892*
X-153640Y27132*
X-153730Y27342*
X-153880Y27492*
X-154120Y27552*
X-167920*
Y41652*
X-153940Y46572*
X-153730Y46692*
X-153610Y46902*
X-153580Y47112*
X-153640Y47322*
X-153730Y47502*
X-153910Y47652*
X-154090Y47712*
X-154330Y47682*
X-168310Y42762*
X-172120Y47562*
X-170020Y302682D02*
X-158440D01*
X-154720Y306372*
Y317952*
X-158440Y321672*
X-170020*
X-173740Y317952*
Y306372*
X-170020Y302682*
X-169960Y189612D02*
X-166840D01*
Y208602*
X-168010*
X-173740Y202872*
Y195192*
X-169960Y189612*
X-169030Y70812D02*
X-164920Y75882D01*
X-164800Y75972*
X-164650Y76002*
X-164560Y76032*
X-164470Y76062*
X-164410Y76092*
X-158230*
X-158140Y76062*
X-157930Y76002*
X-157870Y75972*
X-157750Y75882*
X-153640Y70842*
X-153580Y70692*
X-153550Y70662*
Y70572*
X-153520Y70542*
Y70512*
Y70452*
Y60342*
X-153550Y60222*
X-153580Y60102*
X-153640Y59982*
X-157750Y54942*
X-157810Y54852*
X-157900Y54792*
X-157990Y54762*
X-158080Y54732*
X-158290Y54792*
X-158500Y54882*
X-158650Y55032*
X-158770Y55212*
X-158800Y55422*
X-158740Y55632*
X-154750Y60522*
Y70212*
X-158530Y74892*
X-164110*
X-167920Y70212*
Y60342*
Y60192*
X-167950Y60072*
X-168010Y59982*
X-172120Y54942*
X-172150Y54852*
X-172210Y54822*
X-172300Y54762*
X-172510Y54702*
X-172630Y54672*
X-178810*
X-178960Y54702*
X-179080Y54762*
X-179140Y54822*
X-179200Y54852*
X-179290Y54942*
X-183400Y59982*
X-183430Y60102*
X-183460Y60162*
X-183490Y60222*
Y60192*
X-183520Y60342*
Y70452*
X-183490Y70572*
X-183460Y70632*
X-183430Y70722*
X-183400Y70812*
X-180310Y74592*
X-180160Y74742*
X-179980Y74802*
X-179770Y74772*
X-179560Y74682*
X-179410Y74502*
X-179290Y74292*
X-179260Y74082*
X-179320Y73872*
X-182290Y70272*
Y60522*
X-178510Y55902*
X-172930*
X-169120Y60522*
Y70422*
X-169090Y70572*
X-169060Y70692*
X-169030Y70812*
X-154120Y273042D02*
X-153880Y273102D01*
X-153730Y273252*
X-153640Y273432*
X-153610Y273642*
X-153640Y273882*
X-153730Y274092*
X-153880Y274242*
X-154120Y274302*
X-170020*
X-173740Y278922*
Y288612*
X-169810Y293532*
X-169720Y293712*
X-169750Y293922*
X-169840Y294132*
X-169990Y294282*
X-170200Y294402*
X-170410Y294432*
X-170620Y294402*
X-170800Y294282*
X-174820Y289212*
X-174880Y289062*
X-174910Y288942*
X-174940Y288822*
Y278712*
X-174910Y278592*
X-174880Y278502*
X-174820Y278352*
X-171580Y274302*
X-174340*
X-174580Y274242*
X-174730Y274092*
X-174850Y273882*
X-174880Y273642*
X-174850Y273432*
X-174730Y273252*
X-174580Y273102*
X-174340Y273042*
X-170380*
X-170320*
X-170200*
X-154120*
Y349962D02*
X-153880Y349992D01*
X-153730Y350142*
X-153640Y350352*
X-153610Y350562*
X-153640Y350772*
X-153730Y350952*
X-153880Y351102*
X-154120Y351162*
X-170320*
X-170410Y351132*
X-170530Y351072*
X-170680Y351042*
X-170800Y350952*
X-174820Y345882*
X-174880Y345732*
X-174910Y345612*
X-174940Y345492*
Y335382*
X-174910Y335262*
X-174880Y335172*
X-174820Y335022*
X-171580Y330972*
X-174340*
X-174580Y330912*
X-174730Y330762*
X-174850Y330552*
X-174880Y330312*
X-174850Y330102*
X-174730Y329922*
X-174580Y329772*
X-174340Y329712*
X-154120*
X-153880Y329772*
X-153730Y329922*
X-153640Y330102*
X-153610Y330312*
X-153640Y330552*
X-153730Y330762*
X-153880Y330912*
X-154120Y330972*
X-170020*
X-173740Y335592*
Y345282*
X-170020Y349962*
X-154120*
X-153520Y318252D02*
Y306132D01*
Y306012*
X-153550Y305952*
X-153580Y305802*
X-153700Y305652*
X-157720Y301632*
X-157870Y301482*
X-158020Y301452*
X-158170*
X-170320*
X-170410*
X-170590Y301482*
X-170770Y301632*
X-174790Y305652*
X-174880Y305802*
X-174910Y305952*
X-174940Y306012*
X-174970Y306132*
X-174940Y318252*
X-174910Y318372*
X-174880Y318492*
X-174790Y318672*
X-170770Y322752*
X-170620Y322782*
X-170500Y322812*
X-170440Y322842*
X-170410*
X-170320Y322872*
X-158170*
X-158020Y322842*
X-157930Y322812*
X-157720Y322752*
X-153700Y318672*
X-153580Y318492*
X-153550Y318372*
X-153520Y318252*
Y371292D02*
X-153580Y371532D01*
X-153700Y371652*
X-153910Y371742*
X-154120Y371772*
X-154330Y371742*
X-154540Y371652*
X-154660Y371532*
X-154720Y371292*
Y368142*
X-174340*
X-174580Y368082*
X-174730Y367962*
X-174910Y367782*
X-174940Y367572*
Y363852*
X-174910Y363642*
X-174760Y363492*
X-174550Y363402*
X-174340Y363372*
X-174130Y363402*
X-173950Y363492*
X-173800Y363642*
X-173740Y363852*
Y367002*
X-154720*
Y363852*
X-154660Y363642*
X-154540Y363492*
X-154330Y363402*
X-154120Y363372*
X-153910Y363402*
X-153700Y363492*
X-153580Y363642*
X-153520Y363852*
Y371292*
X-131160Y96981D02*
X-131265Y96951D01*
X-131355Y96876*
X-131400Y96786*
X-131415Y96681*
X-131400Y96576*
X-131355Y96471*
X-131265Y96396*
X-131160Y96381*
X-126315*
Y92706*
X-126285Y92601*
X-126225Y92526*
X-126120Y92481*
X-126015*
X-125910*
X-125805Y92526*
X-125745Y92601*
X-125715Y92706*
Y96381*
X-117780*
X-117705Y96396*
X-117630Y96441*
X-117585Y96471*
X-117555Y96531*
X-116520Y98031*
X-116475Y98091*
X-116460Y98181*
Y100191*
X-116475Y100281*
X-116520Y100356*
X-117555Y101856*
X-117630Y101946*
X-117720Y101976*
X-117825Y101961*
X-117930Y101901*
X-118005Y101826*
X-118065Y101751*
X-118080Y101646*
X-118035Y101541*
X-117075Y100101*
Y98241*
X-117930Y96981*
X-125715*
Y100686*
X-125745Y100791*
X-125805Y100881*
X-125910Y100926*
X-126015Y100941*
X-126120Y100926*
X-126225Y100881*
X-126285Y100791*
X-126315Y100686*
Y96981*
X-131160*
Y232806D02*
X-131265Y232776D01*
X-131355Y232701*
X-131400Y232611*
X-131415Y232506*
X-131400Y232401*
X-131355Y232296*
X-131265Y232221*
X-131160Y232206*
X-126315*
Y228531*
X-126285Y228426*
X-126225Y228351*
X-126120Y228306*
X-126015*
X-125910*
X-125805Y228351*
X-125745Y228426*
X-125715Y228531*
Y232206*
X-117780*
X-117705Y232221*
X-117630Y232266*
X-117585Y232296*
X-117555Y232356*
X-116520Y233856*
X-116475Y233916*
X-116460Y234006*
Y236016*
X-116475Y236106*
X-116520Y236181*
X-117555Y237681*
X-117630Y237771*
X-117720Y237801*
X-117825Y237786*
X-117930Y237726*
X-118005Y237651*
X-118065Y237576*
X-118080Y237471*
X-118035Y237366*
X-117075Y235926*
Y234066*
X-117930Y232806*
X-125715*
Y236511*
X-125745Y236616*
X-125805Y236706*
X-125910Y236751*
X-126015Y236766*
X-126120Y236751*
X-126225Y236706*
X-126285Y236616*
X-126315Y236511*
Y232806*
X-131160*
X-130845Y36426D02*
Y43596D01*
X-128955Y45936*
X-126165*
X-124260Y43596*
Y36426*
X-130845*
Y252591D02*
Y259896D01*
X-128985Y261561*
X-126195*
X-124860Y259911*
Y252591*
X-130845*
X-129210Y262191D02*
X-131355Y260256D01*
X-131430Y260151*
X-131460Y260046*
Y252261*
X-131430Y252156*
X-131370Y252066*
X-131265Y251991*
X-131160Y251961*
X-124605*
X-124560*
X-124515*
X-116760*
X-116655Y251991*
X-116550Y252066*
X-116475Y252156*
X-116460Y252261*
Y260136*
X-118605Y262596*
X-118695Y262656*
X-118815Y262686*
X-122025*
X-124515Y260481*
X-125775Y262056*
X-125835Y262101*
X-125910Y262146*
X-125985Y262176*
X-126030Y262191*
X-129210*
X-127185Y108756D02*
X-127170Y112821D01*
X-127155Y112881*
X-127140Y112941*
X-127095Y113031*
X-124065Y116076*
X-123990Y116091*
X-123930Y116106*
X-123900*
Y116121*
X-123825Y116136*
X-122820*
X-122715Y116121*
X-122625Y116046*
X-122550Y115971*
X-122520Y115836*
Y106041*
X-118920*
X-117060Y108831*
Y112671*
X-120015Y115626*
X-120075Y115716*
Y115821*
X-120045Y115941*
X-119970Y116031*
X-119880Y116091*
X-119775Y116136*
X-119655*
X-119565Y116076*
X-116550Y113031*
X-116490Y112941*
X-116475Y112881*
X-116460Y112821*
Y108756*
X-116475Y108666*
X-116520Y108591*
X-118530Y105576*
X-118560Y105516*
X-118620Y105486*
X-118695Y105441*
X-118770Y105426*
X-124860*
X-124935Y105441*
X-125010Y105486*
X-125055Y105516*
X-125070Y105531*
X-125100Y105576*
X-127110Y108591*
X-127170Y108666*
X-127185Y108756*
X-125760Y46431D02*
X-125790Y46476D01*
X-125865Y46491*
X-125940Y46521*
X-126015Y46536*
X-129105*
X-129180Y46521*
X-129225Y46491*
X-129270*
X-129285Y46476*
X-129300Y46446*
X-129345Y46431*
X-131400Y43881*
X-131430Y43806*
X-131445Y43746*
X-131460Y43686*
Y36126*
X-131430Y35991*
X-131355Y35901*
X-131265Y35826*
X-131160Y35796*
X-116760*
X-116640Y35826*
X-116565Y35901*
X-116520Y35991*
X-116505Y36096*
X-116520Y36216*
X-116565Y36321*
X-116640Y36396*
X-116760Y36426*
X-123660*
Y43686*
X-123675Y43791*
X-123690Y43821*
Y43851*
X-123705Y43881*
X-125760Y46431*
X-124845Y120186D02*
X-126720Y122496D01*
Y127296*
X-123810Y129681*
X-118965*
X-117075Y127341*
Y122496*
X-118965Y120186*
X-124845*
Y309246D02*
X-126720Y311556D01*
Y316356*
X-123810Y318741*
X-118965*
X-117075Y316401*
Y311556*
X-118965Y309246*
X-124845*
X-124710Y266766D02*
X-118920D01*
X-117060Y268611*
Y274401*
X-118920Y276261*
X-124710*
X-126570Y274401*
Y268611*
X-124710Y266766*
X-124680Y106041D02*
X-123120D01*
Y115536*
X-123705*
X-126570Y112671*
Y108831*
X-124680Y106041*
X-124245Y252591D02*
Y259881D01*
X-121770Y262086*
X-118950*
X-117075Y259911*
Y252591*
X-124245*
X-121650Y280911D02*
X-123540Y283686D01*
Y287601*
X-121650Y290406*
X-118920*
X-117060Y287601*
Y283686*
X-118920Y280911*
X-121650*
X-118770Y199956D02*
X-118725Y199971D01*
X-118650Y200001*
X-118590Y200031*
X-118545Y200091*
X-116520Y202611*
X-116490Y202671*
X-116475Y202731*
X-116460Y202791*
Y207846*
Y207876*
X-116475Y207906*
Y207921*
Y207951*
X-116490Y207981*
X-116520Y208041*
X-118155Y210081*
X-116760*
X-116640Y210096*
X-116565Y210171*
X-116520Y210276*
X-116505Y210381*
X-116520Y210486*
X-116565Y210576*
X-116640Y210651*
X-116760Y210681*
X-126870*
X-126990Y210651*
X-127065Y210576*
X-127125Y210486*
X-127140Y210381*
X-127125Y210276*
X-127065Y210171*
X-126990Y210096*
X-126870Y210081*
X-118920*
X-117060Y207741*
Y202896*
X-118920Y200586*
X-126870*
X-126990Y200556*
X-127065Y200481*
X-127125Y200376*
X-127140Y200256*
X-127125Y200151*
X-127065Y200061*
X-126990Y199986*
X-126870Y199956*
X-118770*
X-116760Y49971D02*
X-116640Y50001D01*
X-116565Y50076*
X-116520Y50166*
X-116505Y50271*
X-116520Y50391*
X-116565Y50496*
X-116640Y50571*
X-116760Y50601*
X-124710*
X-126570Y52911*
Y57756*
X-124605Y60216*
X-124560Y60306*
X-124575Y60411*
X-124620Y60516*
X-124695Y60591*
X-124800Y60651*
X-124905Y60666*
X-125010Y60651*
X-125100Y60591*
X-127110Y58056*
X-127140Y57981*
X-127155Y57921*
X-127170Y57861*
Y52806*
X-127155Y52746*
X-127140Y52701*
X-127110Y52626*
X-125490Y50601*
X-126870*
X-126990Y50571*
X-127065Y50496*
X-127125Y50391*
X-127140Y50271*
X-127125Y50166*
X-127065Y50076*
X-126990Y50001*
X-126870Y49971*
X-124890*
X-124860*
X-124800*
X-116760*
Y87336D02*
X-116640Y87351D01*
X-116565Y87426*
X-116520Y87531*
X-116505Y87636*
X-116520Y87741*
X-116565Y87831*
X-116640Y87906*
X-116760Y87936*
X-124860*
X-124905Y87921*
X-124965Y87891*
X-125040Y87876*
X-125100Y87831*
X-127110Y85296*
X-127140Y85221*
X-127155Y85161*
X-127170Y85101*
Y80046*
X-127155Y79986*
X-127140Y79941*
X-127110Y79866*
X-125490Y77841*
X-126870*
X-126990Y77811*
X-127065Y77736*
X-127125Y77631*
X-127140Y77511*
X-127125Y77406*
X-127065Y77316*
X-126990Y77241*
X-126870Y77211*
X-116760*
X-116640Y77241*
X-116565Y77316*
X-116520Y77406*
X-116505Y77511*
X-116520Y77631*
X-116565Y77736*
X-116640Y77811*
X-116760Y77841*
X-124710*
X-126570Y80151*
Y84996*
X-124710Y87336*
X-116760*
Y171621D02*
X-116640Y171651D01*
X-116565Y171726*
X-116520Y171816*
X-116505Y171921*
X-116520Y172041*
X-116565Y172146*
X-116640Y172221*
X-116760Y172251*
X-124710*
X-126570Y174561*
Y179406*
X-124605Y181866*
X-124560Y181956*
X-124575Y182061*
X-124620Y182166*
X-124695Y182241*
X-124800Y182301*
X-124905Y182316*
X-125010Y182301*
X-125100Y182241*
X-127110Y179706*
X-127140Y179631*
X-127155Y179571*
X-127170Y179511*
Y174456*
X-127155Y174396*
X-127140Y174351*
X-127110Y174276*
X-125490Y172251*
X-126870*
X-126990Y172221*
X-127065Y172146*
X-127125Y172041*
X-127140Y171921*
X-127125Y171816*
X-127065Y171726*
X-126990Y171651*
X-126870Y171621*
X-124890*
X-124860*
X-124800*
X-116760*
Y290406D02*
X-116640Y290421D01*
X-116565Y290496*
X-116520Y290601*
X-116505Y290706*
X-116520Y290811*
X-116565Y290901*
X-116640Y290976*
X-116760Y291006*
X-124860*
X-124905Y290976*
X-124965*
X-125070Y290931*
X-127095Y288906*
X-127140Y288816*
X-127155Y288756*
X-127170Y288681*
Y280581*
X-127155Y280476*
X-127080Y280386*
X-126975Y280341*
X-126870Y280326*
X-126765Y280341*
X-126675Y280386*
X-126600Y280476*
X-126570Y280581*
Y288531*
X-124710Y290406*
X-122355*
X-124095Y287826*
X-124125Y287766*
X-124140Y287676*
Y283626*
X-124125Y283521*
X-124095Y283461*
X-122055Y280431*
X-122025Y280401*
X-122010Y280386*
X-121995Y280356*
X-121920Y280296*
X-121815Y280281*
X-118770*
X-118695Y280296*
X-118620Y280356*
X-118575Y280386*
X-118545Y280431*
X-116520Y283461*
X-116475Y283536*
X-116460Y283626*
Y287676*
X-116475Y287766*
X-116520Y287826*
X-118215Y290406*
X-116760*
Y294426D02*
X-116640Y294456D01*
X-116565Y294531*
X-116520Y294621*
X-116505Y294726*
X-116520Y294846*
X-116565Y294951*
X-116640Y295026*
X-116760Y295056*
X-124710*
X-126570Y297366*
Y302211*
X-124605Y304671*
X-124560Y304761*
X-124575Y304866*
X-124620Y304971*
X-124695Y305046*
X-124800Y305106*
X-124905Y305121*
X-125010Y305106*
X-125100Y305046*
X-127110Y302511*
X-127140Y302436*
X-127155Y302376*
X-127170Y302316*
Y297261*
X-127155Y297201*
X-127140Y297156*
X-127110Y297081*
X-125490Y295056*
X-126870*
X-126990Y295026*
X-127065Y294951*
X-127125Y294846*
X-127140Y294726*
X-127125Y294621*
X-127065Y294531*
X-126990Y294456*
X-126870Y294426*
X-124890*
X-124860*
X-124800*
X-116760*
X-116520Y122211D02*
X-116490Y122271D01*
X-116475Y122331*
X-116460Y122391*
Y127446*
Y127506*
X-116475Y127536*
X-116490Y127566*
X-116520Y127641*
X-118185Y129681*
X-116760*
X-116640Y129696*
X-116565Y129771*
X-116520Y129876*
X-116505Y129981*
X-116520Y130086*
X-116565Y130176*
X-116640Y130251*
X-116760Y130281*
X-123975*
X-124005*
X-131160*
X-131265Y130251*
X-131355Y130176*
X-131400Y130086*
X-131415Y129981*
X-131400Y129876*
X-131355Y129771*
X-131265Y129696*
X-131160Y129681*
X-124815*
X-127230Y127701*
X-127275Y127641*
X-127320Y127536*
X-127335Y127491*
X-127350Y127446*
Y122391*
X-127320Y122331*
X-127305Y122286*
X-127275Y122211*
X-125220Y119691*
X-125175Y119631*
X-125115Y119601*
X-125040Y119571*
X-124980Y119556*
X-118815*
X-118740Y119571*
X-118680Y119601*
X-118620Y119631*
X-118575Y119691*
X-116520Y122211*
Y147096D02*
X-118575Y144576D01*
X-118620Y144501*
X-118680Y144486*
X-118740Y144456*
X-118815Y144441*
X-129105*
X-129180Y144456*
X-129240Y144486*
X-129270Y144516*
X-129300Y144531*
X-129345Y144561*
X-131400Y147096*
X-131415Y147141*
X-131430Y147186*
X-131445Y147201*
X-131460Y147261*
Y152316*
X-131445Y152391*
X-131430Y152421*
X-131415Y152451*
X-131400Y152511*
X-129345Y155046*
X-129270Y155106*
X-129150Y155136*
X-129075Y155121*
X-128985Y155091*
X-128925Y155046*
X-128865Y154971*
X-128820Y154896*
X-128805Y154821*
Y154746*
X-128850Y154686*
X-130845Y152211*
Y147366*
X-128955Y145056*
X-118965*
X-117075Y147366*
Y152211*
X-119070Y154686*
X-119100Y154746*
X-119115Y154821*
X-119100Y154896*
X-119055Y154971*
X-118995Y155046*
X-118920Y155091*
X-118845Y155121*
X-118740Y155136*
X-118650Y155106*
X-118575Y155046*
X-116520Y152511*
X-116490Y152451*
X-116475Y152436*
Y152391*
X-116460Y152376*
Y152361*
Y152316*
Y147261*
X-116475Y147201*
X-116490Y147141*
X-116520Y147096*
Y311271D02*
X-116490Y311331D01*
X-116475Y311391*
X-116460Y311451*
Y316506*
Y316566*
X-116475Y316596*
X-116490Y316626*
X-116520Y316701*
X-118185Y318741*
X-116760*
X-116640Y318756*
X-116565Y318831*
X-116520Y318936*
X-116505Y319041*
X-116520Y319146*
X-116565Y319236*
X-116640Y319311*
X-116760Y319341*
X-123975*
X-124005*
X-131160*
X-131265Y319311*
X-131355Y319236*
X-131400Y319146*
X-131415Y319041*
X-131400Y318936*
X-131355Y318831*
X-131265Y318756*
X-131160Y318741*
X-124815*
X-127230Y316761*
X-127275Y316701*
X-127320Y316596*
X-127335Y316551*
X-127350Y316506*
Y311451*
X-127320Y311391*
X-127305Y311346*
X-127275Y311271*
X-125220Y308751*
X-125175Y308691*
X-125115Y308661*
X-125040Y308631*
X-124980Y308616*
X-118815*
X-118740Y308631*
X-118680Y308661*
X-118620Y308691*
X-118575Y308751*
X-116520Y311271*
X-116460Y70806D02*
X-116490Y70926D01*
X-116550Y70986*
X-116655Y71031*
X-116760Y71046*
X-116865Y71031*
X-116970Y70986*
X-117030Y70926*
X-117060Y70806*
Y69231*
X-126870*
X-126990Y69201*
X-127065Y69141*
X-127155Y69051*
X-127170Y68946*
Y67086*
X-127155Y66981*
X-127080Y66906*
X-126975Y66861*
X-126870Y66846*
X-126765Y66861*
X-126675Y66906*
X-126600Y66981*
X-126570Y67086*
Y68661*
X-117060*
Y67086*
X-117030Y66981*
X-116970Y66906*
X-116865Y66861*
X-116760Y66846*
X-116655Y66861*
X-116550Y66906*
X-116490Y66981*
X-116460Y67086*
Y70806*
Y165216D02*
X-116490Y165336D01*
X-116550Y165396*
X-116655Y165441*
X-116760Y165456*
X-116865Y165441*
X-116970Y165396*
X-117030Y165336*
X-117060Y165216*
Y163641*
X-126870*
X-126990Y163611*
X-127065Y163551*
X-127155Y163461*
X-127170Y163356*
Y161496*
X-127155Y161391*
X-127080Y161316*
X-126975Y161271*
X-126870Y161256*
X-126765Y161271*
X-126675Y161316*
X-126600Y161391*
X-126570Y161496*
Y163071*
X-117060*
Y161496*
X-117030Y161391*
X-116970Y161316*
X-116865Y161271*
X-116760Y161256*
X-116655Y161271*
X-116550Y161316*
X-116490Y161391*
X-116460Y161496*
Y165216*
Y193236D02*
Y189171D01*
X-116475Y189081*
X-116520Y189006*
X-118530Y185991*
X-118560Y185931*
X-118620Y185901*
X-118695Y185856*
X-118770Y185841*
X-124860*
X-124935Y185856*
X-125010Y185901*
X-125055Y185931*
X-125070Y185946*
X-125100Y185991*
X-127110Y189006*
X-127170Y189081*
X-127185Y189171*
X-127170Y193236*
Y193266*
X-127155*
X-127140Y193341*
X-127095Y193446*
X-124065Y196491*
X-123945Y196536*
X-123840*
X-123735Y196491*
X-123645Y196431*
X-123585Y196341*
X-123540Y196236*
X-123555Y196131*
X-123615Y196041*
X-126570Y193071*
Y189246*
X-124680Y186456*
X-118920*
X-117060Y189246*
Y193071*
X-120015Y196041*
X-120075Y196131*
Y196236*
X-120045Y196356*
X-119970Y196446*
X-119880Y196506*
X-119775Y196551*
X-119655*
X-119565Y196491*
X-116550Y193446*
X-116490Y193341*
X-116475Y193266*
X-116460*
Y193236*
Y220776D02*
X-116490Y220896D01*
X-116550Y220956*
X-116655Y221001*
X-116760Y221016*
X-116865Y221001*
X-116970Y220956*
X-117030Y220896*
X-117060Y220776*
Y219201*
X-126870*
X-126990Y219171*
X-127065Y219111*
X-127155Y219021*
X-127170Y218916*
Y217056*
X-127155Y216951*
X-127080Y216876*
X-126975Y216831*
X-126870Y216816*
X-126765Y216831*
X-126675Y216876*
X-126600Y216951*
X-126570Y217056*
Y218631*
X-117060*
Y217056*
X-117030Y216951*
X-116970Y216876*
X-116865Y216831*
X-116760Y216816*
X-116655Y216831*
X-116550Y216876*
X-116490Y216951*
X-116460Y217056*
Y220776*
Y274551D02*
Y268491D01*
Y268431*
X-116475Y268401*
X-116490Y268326*
X-116550Y268251*
X-118560Y266241*
X-118635Y266166*
X-118710Y266151*
X-118785*
X-124860*
X-124905*
X-124995Y266166*
X-125085Y266241*
X-127095Y268251*
X-127140Y268326*
X-127155Y268401*
X-127170Y268431*
X-127185Y268491*
X-127170Y274551*
X-127155Y274611*
X-127140Y274671*
X-127095Y274761*
X-125085Y276801*
X-125010Y276816*
X-124950Y276831*
X-124920Y276846*
X-124905*
X-124860Y276861*
X-118785*
X-118710Y276846*
X-118665Y276831*
X-118560Y276801*
X-116550Y274761*
X-116490Y274671*
X-116475Y274611*
X-116460Y274551*
X1355Y-42880D02*
X1115Y-42940D01*
X995Y-43060*
X905Y-43270*
X875Y-43510*
X905Y-43720*
X995Y-43930*
X1115Y-44080*
X1355Y-44110*
X13055*
X13265Y-44080*
X13445Y-43930*
X13535Y-43720*
X13565Y-43510*
X13535Y-43270*
X13445Y-43060*
X13265Y-42940*
X13055Y-42880*
X7775*
Y-14710*
X7745Y-14500*
X7655Y-14350*
X7505Y-14260*
X7295Y-14230*
X7145Y-14200*
X6995*
X6875Y-14260*
X6755Y-14380*
X905Y-22600*
X815Y-22810*
Y-23020*
X905Y-23200*
X1055Y-23350*
X1235Y-23470*
X1445Y-23530*
X1565*
X1655Y-23500*
X1805Y-23320*
X6605Y-16600*
Y-42880*
X1355*
X16190Y-75000D02*
X21260Y-79110D01*
X21350Y-79230*
X21380Y-79380*
X21410Y-79470*
X21440Y-79560*
X21470Y-79620*
Y-85800*
X21440Y-85890*
X21380Y-86100*
X21350Y-86160*
X21260Y-86280*
X16220Y-90390*
X16070Y-90450*
X16040Y-90480*
X15980*
X15920Y-90510*
X15890*
X15830*
X5720*
X5600Y-90480*
X5480Y-90450*
X5360Y-90390*
X320Y-86280*
X170Y-86130*
X140Y-86040*
Y-85950*
X170Y-85740*
X290Y-85530*
X410Y-85380*
X590Y-85260*
X800Y-85230*
X1010Y-85290*
X5900Y-89280*
X15590*
X20270Y-85500*
Y-79920*
X15590Y-76110*
X5720*
X5600*
X5450Y-76080*
X5360Y-76020*
X320Y-71910*
X260Y-71880*
X200Y-71820*
X140Y-71730*
X80Y-71520*
X50Y-71400*
Y-65220*
X80Y-65070*
X140Y-64950*
X200Y-64890*
X260Y-64830*
X320Y-64740*
X5360Y-60630*
X5480Y-60600*
X5570Y-60570*
X5600Y-60540*
X5720Y-60510*
X15830*
X15950Y-60540*
X16010Y-60570*
X16100Y-60600*
X16190Y-60630*
X19970Y-63720*
X20120Y-63870*
X20180Y-64050*
X20150Y-64260*
X20060Y-64470*
X19910Y-64620*
X19700Y-64740*
X19460Y-64770*
X19250Y-64710*
X15650Y-61740*
X5900*
X1280Y-65520*
Y-71100*
X5900Y-74910*
X15830*
X15950Y-74940*
X16070Y-74970*
X16190Y-75000*
X26405Y-33190D02*
X42545Y-17110D01*
Y-33190*
X26405*
X29630Y-74010D02*
Y-85590D01*
X33320Y-89310*
X44900*
X48620Y-85590*
Y-74010*
X44900Y-70290*
X33320*
X29630Y-74010*
X42545Y-43510D02*
X42575Y-43750D01*
X42725Y-43900*
X42935Y-43990*
X43145Y-44020*
X43355Y-43990*
X43535Y-43900*
X43685Y-43750*
X43745Y-43510*
Y-34420*
X45155*
X45365Y-34360*
X45545Y-34240*
X45635Y-34030*
X45665Y-33820*
X45635Y-33580*
X45545Y-33370*
X45365Y-33220*
X45155Y-33190*
X43745*
Y-15550*
X43715Y-15400*
X43625Y-15280*
X43505Y-15160*
X43355Y-15070*
X43175Y-15010*
X42995Y-14980*
X42845Y-15010*
X42695Y-15130*
X24485Y-33340*
X24365Y-33520*
X24305Y-33700*
X24335Y-33880*
X24455Y-34090*
X24515Y-34240*
X24635Y-34330*
X24755Y-34390*
X24905Y-34420*
X42545*
Y-43510*
X45200Y-90510D02*
X33080D01*
X32960*
X32900Y-90480*
X32750Y-90450*
X32600Y-90330*
X28580Y-86310*
X28460Y-86160*
X28400Y-86010*
Y-85860*
Y-73710*
Y-73620*
X28460Y-73440*
X28580Y-73260*
X32600Y-69240*
X32750Y-69150*
X32900Y-69120*
X32960Y-69090*
X33080Y-69060*
X45200Y-69090*
X45320Y-69120*
X45440Y-69150*
X45620Y-69240*
X49700Y-73260*
X49730Y-73410*
X49760Y-73530*
X49790Y-73590*
Y-73620*
X49820Y-73710*
Y-85860*
X49790Y-86010*
X49760Y-86100*
X49700Y-86310*
X45620Y-90330*
X45440Y-90450*
X45320Y-90480*
X45200Y-90510*
X52955Y-18340D02*
X57995Y-14230D01*
X58115Y-14200*
X58205Y-14170*
X58235Y-14140*
X58355Y-14110*
X68465*
X68585Y-14140*
X68615*
X68645Y-14170*
X68735Y-14200*
X68855Y-14230*
X73895Y-18340*
X73985Y-18490*
X74015Y-18610*
X74075Y-18700*
X74105Y-18820*
Y-39400*
X74075Y-39490*
X74015Y-39700*
X73985Y-39760*
X73895Y-39880*
X68855Y-43990*
X68735Y-44020*
X68675Y-44050*
X68615Y-44080*
X68555Y-44110*
X68465*
X58355*
X58235Y-44080*
X58115Y-44050*
X57995Y-43990*
X52955Y-39880*
X52895Y-39820*
X52835Y-39790*
X52775Y-39700*
X52715Y-39490*
X52685Y-39400*
Y-18820*
X52715Y-18700*
X52775Y-18610*
X52835Y-18490*
X52955Y-18340*
X53915Y-19120D02*
Y-39100D01*
X55685Y-40600*
X70205Y-16930*
X68225Y-15340*
X58535*
X53915Y-19120*
X56645Y-41380D02*
X58535Y-42880D01*
X68225*
X72905Y-39100*
Y-19120*
X71135Y-17710*
X56645Y-41380*
X61010Y-60510D02*
X60770Y-60570D01*
X60650Y-60720*
X60560Y-60900*
X60530Y-61140*
X60560Y-61350*
X60650Y-61560*
X60770Y-61680*
X61010Y-61740*
X66260*
Y-89250*
X61010*
X60770Y-89310*
X60650Y-89460*
X60560Y-89670*
X60530Y-89910*
X60560Y-90120*
X60650Y-90330*
X60770Y-90450*
X61010Y-90510*
X72710*
X72920Y-90450*
X73100Y-90330*
X73190Y-90120*
X73220Y-89910*
X73190Y-89670*
X73100Y-89460*
X72920Y-89310*
X72710Y-89250*
X67430*
Y-61110*
X67400Y-60900*
X67250Y-60720*
X67100Y-60570*
X66860Y-60510*
X61010*
X66402Y612100D03*
X70689Y696710D03*
X73557Y626533D03*
X74228Y799900D03*
X85130Y-73740D02*
X89750Y-69990D01*
X99350*
X104120Y-75810*
Y-85500*
X99440Y-89280*
X89750*
X85130Y-85500*
Y-73740*
X86675Y-24430D02*
X86555Y-24460D01*
X86465Y-24490*
X86345Y-24550*
X82265Y-27850*
Y-15340*
X101855*
X102065Y-15280*
X102245Y-15160*
X102335Y-14950*
X102365Y-14740*
X102335Y-14500*
X102245Y-14320*
X102065Y-14170*
X101855Y-14110*
X81605*
X81395Y-14170*
X81215Y-14320*
X81065Y-14500*
X81005Y-14710*
Y-29140*
X81035Y-29350*
X81125Y-29500*
X81245Y-29590*
X81455Y-29650*
X81605Y-29710*
X81725Y-29740*
X81875Y-29710*
X81995Y-29620*
X86885Y-25630*
X96575*
X101255Y-29440*
Y-39100*
X96575Y-42850*
X86885*
X81995Y-38890*
X81785Y-38800*
X81605*
X81425Y-38920*
X81245Y-39070*
X81125Y-39280*
X81095Y-39490*
X81125Y-39700*
X81275Y-39850*
X86345Y-43990*
X86435Y-44050*
X86555*
X86675Y-44110*
X96785*
X96875*
X96905Y-44080*
X96935*
X96995Y-44050*
X97055*
X97175Y-43990*
X102245Y-39850*
X102335Y-39760*
X102365Y-39700*
X102425Y-39520*
X102455Y-39400*
Y-29140*
X102425Y-29020*
X102365Y-28840*
Y-28780*
X102335Y-28750*
X102275Y-28690*
X102245Y-28630*
X97175Y-24550*
X97025Y-24490*
X96905Y-24460*
X96785Y-24430*
X86675*
X89210Y-90390D02*
X89300Y-90450D01*
X89420Y-90480*
X89540Y-90510*
X99650*
X99770*
X99830Y-90480*
X99890Y-90450*
X100040Y-90390*
X104120Y-87060*
Y-89910*
X104150Y-90150*
X104300Y-90300*
X104510Y-90390*
X104720Y-90420*
X104930Y-90390*
X105110Y-90300*
X105260Y-90150*
X105320Y-89910*
Y-75480*
Y-75420*
Y-61110*
X105260Y-60900*
X105110Y-60720*
X104930Y-60630*
X104720Y-60600*
X104510Y-60630*
X104300Y-60720*
X104150Y-60900*
X104120Y-61110*
Y-73800*
X100160Y-68970*
X100040Y-68880*
X99830Y-68790*
X99740Y-68760*
X99650Y-68730*
X89540*
X89420Y-68790*
X89330Y-68820*
X89210Y-68880*
X84140Y-72990*
X84020Y-73080*
X83960Y-73200*
X83900Y-73350*
X83870Y-73470*
Y-85800*
X83900Y-85950*
X83960Y-86070*
X84020Y-86190*
X84140Y-86280*
X89210Y-90390*
X91792Y866700D03*
X97950Y814250D03*
X104458Y626450D03*
X104608Y753900D03*
Y936700D03*
X107972Y784447D03*
X113420Y-74070D02*
Y-77190D01*
X132410*
Y-76020*
X126680Y-70290*
X119000*
X113420Y-74070*
X113705Y-42880D02*
X113465Y-42940D01*
X113345Y-43060*
X113255Y-43270*
X113225Y-43510*
X113255Y-43720*
X113345Y-43930*
X113465Y-44080*
X113705Y-44110*
X125405*
X125615Y-44080*
X125795Y-43930*
X125885Y-43720*
X125915Y-43510*
X125885Y-43270*
X125795Y-43060*
X125615Y-42940*
X125405Y-42880*
X120125*
Y-14710*
X120095Y-14500*
X120005Y-14350*
X119855Y-14260*
X119645Y-14230*
X119495Y-14200*
X119345*
X119225Y-14260*
X119105Y-14380*
X113255Y-22600*
X113165Y-22810*
Y-23020*
X113255Y-23200*
X113405Y-23350*
X113585Y-23470*
X113795Y-23530*
X113915*
X114005Y-23500*
X114155Y-23320*
X118955Y-16600*
Y-42880*
X113705*
X114100Y320303D03*
Y330670D03*
X118850Y-69060D02*
X126980Y-69090D01*
X127100Y-69120*
X127220Y-69150*
X127400Y-69240*
X133490Y-75300*
X133520Y-75450*
X133550Y-75570*
Y-75630*
X133580*
X133610Y-75780*
Y-77790*
X133580Y-78000*
X133430Y-78180*
X133280Y-78330*
X133010Y-78390*
X113420*
Y-85590*
X119000Y-89310*
X126680*
X132590Y-83400*
X132770Y-83280*
X132980*
X133220Y-83340*
X133400Y-83490*
X133550Y-83670*
X133610Y-83880*
Y-84120*
X133490Y-84300*
X127400Y-90330*
X127220Y-90450*
X127100Y-90480*
X126980Y-90510*
X118850*
X118670Y-90480*
X118520Y-90390*
X112490Y-86370*
X112370Y-86310*
X112310Y-86190*
X112220Y-86040*
X112190Y-85890*
Y-73710*
X112220Y-73560*
X112310Y-73410*
X112370Y-73320*
X112430Y-73290*
X112490Y-73230*
X118520Y-69210*
X118670Y-69090*
X118850Y-69060*
X128016Y814250D03*
X130150Y121550D03*
X133508Y234100D03*
X140450Y-89910D02*
X140510Y-90150D01*
X140660Y-90300*
X140840Y-90390*
X141050Y-90420*
X141290Y-90390*
X141500Y-90300*
X141650Y-90150*
X141710Y-89910*
Y-74010*
X146330Y-70290*
X156020*
X160940Y-74220*
X161120Y-74310*
X161330Y-74280*
X161540Y-74190*
X161690Y-74040*
X161810Y-73830*
X161840Y-73620*
X161810Y-73410*
X161690Y-73230*
X156620Y-69210*
X156470Y-69150*
X156350Y-69120*
X156230Y-69090*
X146120*
X146000Y-69120*
X145910Y-69150*
X145790Y-69210*
X141710Y-72450*
Y-69690*
X141650Y-69450*
X141500Y-69300*
X141290Y-69210*
X141050Y-69150*
X140840Y-69210*
X140660Y-69300*
X140510Y-69450*
X140450Y-69690*
Y-73650*
Y-73710*
Y-73830*
Y-89910*
X142325Y-24430D02*
X142205Y-24460D01*
X142115Y-24490*
X141995Y-24550*
X137915Y-27850*
Y-15340*
X157505*
X157715Y-15280*
X157895Y-15160*
X157985Y-14950*
X158015Y-14740*
X157985Y-14500*
X157895Y-14320*
X157715Y-14170*
X157505Y-14110*
X137255*
X137045Y-14170*
X136865Y-14320*
X136715Y-14500*
X136655Y-14710*
Y-29140*
X136685Y-29350*
X136775Y-29500*
X136895Y-29590*
X137105Y-29650*
X137255Y-29710*
X137375Y-29740*
X137525Y-29710*
X137645Y-29620*
X142535Y-25630*
X152225*
X156905Y-29440*
Y-39100*
X152225Y-42850*
X142535*
X137645Y-38890*
X137435Y-38800*
X137255*
X137075Y-38920*
X136895Y-39070*
X136775Y-39280*
X136745Y-39490*
X136775Y-39700*
X136925Y-39850*
X141995Y-43990*
X142085Y-44050*
X142205*
X142325Y-44110*
X152435*
X152525*
X152555Y-44080*
X152585*
X152645Y-44050*
X152705*
X152825Y-43990*
X157895Y-39850*
X157985Y-39760*
X158015Y-39700*
X158075Y-39520*
X158105Y-39400*
Y-29140*
X158075Y-29020*
X158015Y-28840*
Y-28780*
X157985Y-28750*
X157925Y-28690*
X157895Y-28630*
X152825Y-24550*
X152675Y-24490*
X152555Y-24460*
X152435Y-24430*
X142325*
X144762Y1185059D03*
X145045Y1009396D03*
Y1057610D03*
X145074Y1131385D03*
X152664Y60561D03*
X156550Y785000D03*
X157310Y230429D03*
X161258Y457100D03*
X161950Y121550D03*
X164506Y521589D03*
X164650Y495011D03*
X166265Y-31450D02*
Y-39100D01*
X170885Y-42880*
X180575*
X185255Y-39100*
Y-31450*
X180575Y-27640*
X170885*
X166265Y-31450*
X174500Y920483D03*
X180702Y612100D03*
X181205Y-14230D02*
X186245Y-18340D01*
X186395Y-18490*
X186425Y-18730*
X186395Y-18910*
X186335Y-19060*
X186245Y-19180*
X186095Y-19300*
X185945Y-19390*
X185795Y-19420*
X185645*
X185525Y-19330*
X180605Y-15340*
X170885*
X166265Y-19120*
Y-29890*
X170345Y-26560*
X170465Y-26530*
X170525Y-26500*
X170555*
Y-26470*
X170705Y-26440*
X180815*
X180935Y-26470*
Y-26500*
X180995*
X181085Y-26530*
X181175Y-26560*
X186245Y-30640*
X186275Y-30730*
X186335Y-30760*
X186365Y-30790*
Y-30850*
X186425Y-31060*
X186455Y-31150*
Y-39400*
X186425Y-39550*
X186365Y-39670*
X186335Y-39790*
X186245Y-39880*
X181205Y-43990*
X181055Y-44050*
X181025Y-44080*
X180965*
X180905Y-44110*
X180875*
X180815*
X170705*
X170585Y-44080*
X170465Y-44050*
X170345Y-43990*
X165305Y-39880*
X165245Y-39820*
X165185Y-39790*
X165125Y-39700*
X165065Y-39490*
X165035Y-39400*
Y-18820*
X165065Y-18670*
X165125Y-18550*
X165185Y-18490*
X165245Y-18430*
X165305Y-18340*
X170345Y-14230*
X170465Y-14200*
X170555Y-14170*
X170585Y-14140*
X170705Y-14110*
X180815*
X180935Y-14140*
X180965*
X180995Y-14170*
X181085Y-14200*
X181205Y-14230*
X185897Y557307D03*
Y592234D03*
X186908Y866700D03*
X189000Y626450D03*
X190280Y-71700D02*
X190220Y-71580D01*
X190190Y-71370*
X190070Y-71220*
X187010Y-69180*
X186860Y-69090*
X186680Y-69060*
X182630*
X182450Y-69090*
X182330Y-69180*
X179570Y-71010*
X176870Y-69180*
X176720Y-69090*
X176570Y-69060*
X172490*
X172310Y-69090*
X172190Y-69180*
X170090Y-70620*
Y-69660*
X170030Y-69420*
X169880Y-69270*
X169670Y-69180*
X169430Y-69120*
X169220Y-69180*
X169040Y-69270*
X168890Y-69420*
X168830Y-69660*
Y-89880*
X168890Y-90120*
X169040Y-90270*
X169220Y-90360*
X169430Y-90390*
X169670Y-90360*
X169880Y-90270*
X170030Y-90120*
X170090Y-89880*
Y-72000*
X172610Y-70260*
X176390*
X178970Y-72000*
Y-89910*
X179000Y-90150*
X179150Y-90300*
X179360Y-90390*
X179570Y-90420*
X179810Y-90390*
X180020Y-90300*
X180140Y-90150*
X180200Y-89910*
Y-72030*
X182780Y-70230*
X186560*
X189080Y-72000*
Y-89910*
X189110Y-90150*
X189260Y-90300*
X189470Y-90390*
X189680Y-90420*
X189890Y-90390*
X190070Y-90300*
X190220Y-90150*
X190280Y-89910*
Y-71700*
X190951Y380367D03*
Y424547D03*
X197495Y-30790D02*
X207125D01*
X207335Y-30820*
X207485Y-30940*
X207575Y-31090*
X207605Y-31270*
X207575Y-31510*
X207485Y-31660*
X207335Y-31780*
X207125Y-31810*
X197495*
X197285Y-31780*
X197135Y-31660*
X197045Y-31510*
X197015Y-31270*
X197045Y-31090*
X197105Y-30940*
X197255Y-30820*
X197495Y-30790*
X198380Y-80130D02*
X203960Y-76350D01*
X211760*
X217370Y-80130*
Y-85590*
X211760Y-89310*
X203960*
X198380Y-85590*
Y-80130*
X200371Y342800D03*
X200872Y799900D03*
X207309Y671613D03*
X211500Y203200D03*
X212250Y814250D03*
X212292Y228600D03*
X217370Y-89910D02*
X217400Y-90150D01*
X217550Y-90300*
X217760Y-90390*
X217970Y-90420*
X218180Y-90390*
X218360Y-90300*
X218510Y-90150*
X218570Y-89910*
Y-73710*
X218510Y-73620*
Y-73500*
X218450Y-73290*
X214370Y-69240*
X214190Y-69150*
X214070Y-69120*
X213950Y-69090*
X197720*
X197510Y-69120*
X197360Y-69270*
X197240Y-69480*
X197210Y-69690*
X197240Y-69900*
X197360Y-70080*
X197510Y-70230*
X197720Y-70290*
X213620*
X217370Y-74010*
Y-78720*
X212210Y-75240*
X212090Y-75180*
X211910Y-75150*
X203810*
X203600Y-75180*
X203480Y-75240*
X197420Y-79320*
X197360Y-79380*
X197330Y-79410*
X197270Y-79440*
X197150Y-79590*
X197120Y-79800*
Y-85890*
X197150Y-86040*
X197270Y-86190*
X197330Y-86280*
X197420Y-86340*
X203480Y-90390*
X203630Y-90480*
X203810Y-90510*
X211910*
X212090Y-90480*
X212210Y-90390*
X217370Y-87000*
Y-89910*
X218758Y626450D03*
X218908Y753900D03*
Y936700D03*
X220865Y-18340D02*
X225905Y-14230D01*
X226025Y-14200*
X226115Y-14170*
X226145Y-14140*
X226265Y-14110*
X236375*
X236495Y-14140*
X236525*
X236555Y-14170*
X236645Y-14200*
X236765Y-14230*
X241805Y-18340*
X241895Y-18490*
X241925Y-18610*
X241985Y-18700*
X242015Y-18820*
Y-39400*
X241985Y-39490*
X241925Y-39700*
X241895Y-39760*
X241805Y-39880*
X236765Y-43990*
X236645Y-44020*
X236585Y-44050*
X236525Y-44080*
X236465Y-44110*
X236375*
X226265*
X226145Y-44080*
X226025Y-44050*
X225905Y-43990*
X220865Y-39880*
X220805Y-39820*
X220745Y-39790*
X220685Y-39700*
X220625Y-39490*
X220595Y-39400*
Y-18820*
X220625Y-18700*
X220685Y-18610*
X220745Y-18490*
X220865Y-18340*
X221825Y-19120D02*
Y-39100D01*
X223595Y-40600*
X238115Y-16930*
X236135Y-15340*
X226445*
X221825Y-19120*
X224555Y-41380D02*
X226445Y-42880D01*
X236135*
X240815Y-39100*
Y-19120*
X239045Y-17710*
X224555Y-41380*
X227482Y342800D03*
X228600Y803908D03*
X231169Y380625D03*
Y425063D03*
X234142Y557307D03*
Y592322D03*
X241550Y-69180D02*
X246590Y-72210D01*
X246710Y-72300*
X246770Y-72390*
X246830Y-72480*
Y-72600*
X246800Y-72780*
X246770Y-72930*
X246680Y-73080*
X246560Y-73200*
X246440Y-73320*
X246290Y-73350*
X246140Y-73320*
X245960Y-73260*
X241040Y-70290*
X231260*
X226670Y-73080*
Y-77400*
X230240Y-79200*
X242240*
X242330Y-79230*
X242390*
X242480Y-79260*
Y-79290*
X246560Y-81300*
X246710Y-81450*
X246770Y-81600*
X246830Y-81690*
X246860Y-81810*
Y-86880*
X246830Y-86970*
X246770Y-87180*
X246740Y-87270*
X246650Y-87360*
X242570Y-90390*
X242510Y-90420*
X242450Y-90480*
X242390*
X242360Y-90510*
X242300*
X242240*
X230120*
X230000*
X229940Y-90480*
X229820Y-90450*
X229730Y-90390*
X225710Y-87330*
X225560Y-87180*
X225530Y-87090*
Y-87000*
X225560Y-86790*
X225680Y-86580*
X225800Y-86430*
X225980Y-86310*
X226100Y-86280*
X226190*
X226310Y-86340*
X226400Y-86400*
X230300Y-89310*
X242000*
X245660Y-86580*
Y-82200*
X242120Y-80400*
X230120*
X229970*
X229910Y-80370*
X229820Y-80310*
X225800Y-78300*
X225620Y-78210*
X225530Y-78060*
X225470Y-77940*
X225440Y-77790*
Y-72720*
Y-72570*
X225470Y-72480*
X225560Y-72360*
X225740Y-72210*
X230780Y-69180*
X230900Y-69120*
X231020Y-69090*
X231080*
X241190*
X241220*
X241280Y-69120*
X241400Y-69150*
X241550Y-69180*
X242450Y1022500D03*
X250850Y225400D03*
X253265Y-42880D02*
X253025Y-42940D01*
X252905Y-43060*
X252815Y-43270*
X252785Y-43510*
X252815Y-43720*
X252905Y-43930*
X253025Y-44080*
X253265Y-44110*
X264965*
X265175Y-44080*
X265355Y-43930*
X265445Y-43720*
X265475Y-43510*
X265445Y-43270*
X265355Y-43060*
X265175Y-42940*
X264965Y-42880*
X259685*
Y-14710*
X259655Y-14500*
X259565Y-14350*
X259415Y-14260*
X259205Y-14230*
X259055Y-14200*
X258905*
X258785Y-14260*
X258665Y-14380*
X252815Y-22600*
X252725Y-22810*
Y-23020*
X252815Y-23200*
X252965Y-23350*
X253145Y-23470*
X253355Y-23530*
X253475*
X253565Y-23500*
X253715Y-23320*
X258515Y-16600*
Y-42880*
X253265*
X256858Y676650D03*
Y803650D03*
X260849Y1128895D03*
X260850Y530200D03*
X261317Y1185059D03*
X264400Y228950D03*
X266980Y266800D03*
X267150Y726600D03*
X270830Y-69900D02*
X270950Y-69840D01*
X271040Y-69750*
X271100Y-69570*
Y-69360*
X271040Y-69150*
X270890Y-68970*
X270710Y-68820*
X270590Y-68790*
X270500Y-68760*
X270380Y-68790*
X270260Y-68820*
X255020Y-76590*
Y-61110*
X254960Y-60900*
X254810Y-60720*
X254600Y-60630*
X254360Y-60600*
X254150Y-60630*
X253970Y-60720*
X253820Y-60900*
X253760Y-61110*
Y-89910*
X253820Y-90150*
X253970Y-90300*
X254150Y-90390*
X254360Y-90420*
X254600Y-90390*
X254810Y-90300*
X254960Y-90150*
X255020Y-89910*
Y-77970*
X258320Y-76230*
X274220Y-90360*
X274400Y-90480*
X274610*
X274790Y-90390*
X274970Y-90270*
X275090Y-90090*
X275150Y-89850*
Y-89640*
X275030Y-89460*
X259460Y-75630*
X270830Y-69900*
X281502Y495750D03*
X282323Y706000D03*
X282495Y456584D03*
X282574Y578396D03*
X282612Y408368D03*
X285250Y599600D03*
X301150Y676650D03*
Y803650D03*
X304760Y-74940D02*
X319340D01*
X323750Y-79890*
Y-85530*
X319400Y-89280*
X304760*
Y-74940*
Y-61740D02*
X319370D01*
X322730Y-65490*
Y-71040*
X319400Y-73710*
X304760*
Y-61740*
X305614Y381010D03*
X305617Y593021D03*
X305758Y457100D03*
Y647600D03*
X309227Y188401D03*
X309682Y160241D03*
Y169853D03*
Y178997D03*
X312300Y494898D03*
X323960Y-65010D02*
X320090Y-60720D01*
X319880Y-60570*
X319670Y-60510*
X304100*
X303890Y-60570*
X303710Y-60720*
X303560Y-60900*
X303500Y-61110*
Y-74220*
Y-74310*
Y-74400*
Y-89910*
X303560Y-90120*
X303710Y-90330*
X303890Y-90480*
X304100Y-90510*
X319850*
X324770Y-86220*
X324890Y-86040*
X324950Y-85800*
Y-79380*
X320540Y-74400*
X323690Y-71880*
X323780Y-71760*
X323870Y-71610*
X323930Y-71460*
X323960Y-71370*
Y-65010*
X328366Y707405D03*
X333073Y489217D03*
X333110Y-74010D02*
Y-85590D01*
X336800Y-89310*
X348380*
X352100Y-85590*
Y-74010*
X348380Y-70290*
X336800*
X333110Y-74010*
X335442Y571600D03*
X335896Y615094D03*
X336900Y203200D03*
X338201Y425100D03*
X340515Y342800D03*
X348680Y-90510D02*
X336560D01*
X336440*
X336380Y-90480*
X336230Y-90450*
X336080Y-90330*
X332060Y-86310*
X331940Y-86160*
X331880Y-86010*
Y-85860*
Y-73710*
Y-73620*
X331940Y-73440*
X332060Y-73260*
X336080Y-69240*
X336230Y-69150*
X336380Y-69120*
X336440Y-69090*
X336560Y-69060*
X348680Y-69090*
X348800Y-69120*
X348920Y-69150*
X349100Y-69240*
X353180Y-73260*
X353210Y-73410*
X353240Y-73530*
X353270Y-73590*
Y-73620*
X353300Y-73710*
Y-85860*
X353270Y-86010*
X353240Y-86100*
X353180Y-86310*
X349100Y-90330*
X348920Y-90450*
X348800Y-90480*
X348680Y-90510*
X351726Y425100D03*
X354408Y497841D03*
X355200Y520700D03*
X356792Y228600D03*
X364942Y553025D03*
X367686Y615654D03*
X369825Y266800D03*
X371390Y-61110D02*
X371330Y-60900D01*
X371180Y-60720*
X371000Y-60630*
X370790Y-60600*
X370580Y-60630*
X370370Y-60720*
X370220Y-60900*
X370190Y-61110*
Y-70800*
X362840*
X362630Y-70860*
X362480Y-70980*
X362420Y-71190*
X362390Y-71400*
X362420Y-71610*
X362480Y-71820*
X362630Y-71940*
X362840Y-72000*
X370190*
Y-87870*
X370220Y-88020*
X370310Y-88170*
X370370Y-88260*
X370490Y-88320*
X373490Y-90390*
X373610Y-90480*
X373790Y-90510*
X377810*
X378020Y-90480*
X378170Y-90390*
X381170Y-88320*
X381320Y-88200*
X381380Y-87990*
X381350Y-87780*
X381230Y-87600*
X381110Y-87420*
X380930Y-87300*
X380720Y-87270*
X380510Y-87360*
X377630Y-89280*
X373910*
X371390Y-87570*
Y-72000*
X378800*
X379010Y-71940*
X379190Y-71820*
X379280Y-71610*
X379310Y-71400*
X379280Y-71190*
X379190Y-70980*
X379010Y-70860*
X378800Y-70800*
X371390*
Y-61110*
X375176Y344772D03*
X375792Y552835D03*
X376655Y707537D03*
X385682Y562800D03*
X387850Y225400D03*
X399500Y-61110D02*
X399440Y-60900D01*
X399290Y-60720*
X399110Y-60630*
X398900Y-60600*
X398690Y-60630*
X398480Y-60720*
X398330Y-60900*
X398300Y-61110*
Y-70800*
X390950*
X390740Y-70860*
X390590Y-70980*
X390530Y-71190*
X390500Y-71400*
X390530Y-71610*
X390590Y-71820*
X390740Y-71940*
X390950Y-72000*
X398300*
Y-87870*
X398330Y-88020*
X398420Y-88170*
X398480Y-88260*
X398600Y-88320*
X401600Y-90390*
X401720Y-90480*
X401900Y-90510*
X405920*
X406130Y-90480*
X406280Y-90390*
X409280Y-88320*
X409430Y-88200*
X409490Y-87990*
X409460Y-87780*
X409340Y-87600*
X409220Y-87420*
X409040Y-87300*
X408830Y-87270*
X408620Y-87360*
X405740Y-89280*
X402020*
X399500Y-87570*
Y-72000*
X406910*
X407120Y-71940*
X407300Y-71820*
X407390Y-71610*
X407420Y-71400*
X407390Y-71190*
X407300Y-70980*
X407120Y-70860*
X406910Y-70800*
X399500*
Y-61110*
X401400Y240400D03*
X405580Y814892D03*
X407092Y839167D03*
X407139Y381100D03*
X407460Y592877D03*
X409501Y671700D03*
Y684700D03*
X412850Y985000D03*
X414850Y926000D03*
X414918Y630517D03*
X417620Y-74010D02*
Y-85590D01*
X421310Y-89310*
X432890*
X436610Y-85590*
Y-74010*
X432890Y-70290*
X421310*
X417620Y-74010*
X424355Y578726D03*
X427417Y716747D03*
X430918Y630356D03*
X433190Y-90510D02*
X421070D01*
X420950*
X420890Y-90480*
X420740Y-90450*
X420590Y-90330*
X416570Y-86310*
X416450Y-86160*
X416390Y-86010*
Y-85860*
Y-73710*
Y-73620*
X416450Y-73440*
X416570Y-73260*
X420590Y-69240*
X420740Y-69150*
X420890Y-69120*
X420950Y-69090*
X421070Y-69060*
X433190Y-69090*
X433310Y-69120*
X433430Y-69150*
X433610Y-69240*
X437690Y-73260*
X437720Y-73410*
X437750Y-73530*
X437780Y-73590*
Y-73620*
X437810Y-73710*
Y-85860*
X437780Y-86010*
X437750Y-86100*
X437690Y-86310*
X433610Y-90330*
X433430Y-90450*
X433310Y-90480*
X433190Y-90510*
X440939Y671511D03*
X442800Y748200D03*
X444000Y41023D03*
X444225Y1114729D03*
X446325Y1082470D03*
X452719Y1004726D03*
X463331Y681870D03*
X466100Y-71700D02*
X466040Y-71580D01*
X466010Y-71370*
X465890Y-71220*
X462830Y-69180*
X462680Y-69090*
X462500Y-69060*
X458450*
X458270Y-69090*
X458150Y-69180*
X455390Y-71010*
X452690Y-69180*
X452540Y-69090*
X452390Y-69060*
X448310*
X448130Y-69090*
X448010Y-69180*
X445910Y-70620*
Y-69660*
X445850Y-69420*
X445700Y-69270*
X445490Y-69180*
X445250Y-69120*
X445040Y-69180*
X444860Y-69270*
X444710Y-69420*
X444650Y-69660*
Y-89880*
X444710Y-90120*
X444860Y-90270*
X445040Y-90360*
X445250Y-90390*
X445490Y-90360*
X445700Y-90270*
X445850Y-90120*
X445910Y-89880*
Y-72000*
X448430Y-70260*
X452210*
X454790Y-72000*
Y-89910*
X454820Y-90150*
X454970Y-90300*
X455180Y-90390*
X455390Y-90420*
X455630Y-90390*
X455840Y-90300*
X455960Y-90150*
X456020Y-89910*
Y-72030*
X458600Y-70230*
X462380*
X464900Y-72000*
Y-89910*
X464930Y-90150*
X465080Y-90300*
X465290Y-90390*
X465500Y-90420*
X465710Y-90390*
X465890Y-90300*
X466040Y-90150*
X466100Y-89910*
Y-71700*
X476250Y759802D03*
X477708Y962301D03*
X478589Y937253D03*
X478877Y716450D03*
X479393Y1066400D03*
X504600Y932100D03*
X507100Y1006400D03*
Y1138000D03*
X507152Y1158000D03*
X507401Y1077894D03*
Y1148000D03*
X510596Y1056400D03*
X556874Y768846D03*
X562664Y683382D03*
X566629Y544279D03*
X573194Y500765D03*
X574894Y168075D03*
X578050Y977500D03*
X578674Y495285D03*
X586235Y510534D03*
X587126Y162773D03*
X587450Y1112750D03*
X587850Y795850D03*
X589054Y542626D03*
X591287Y957172D03*
X594597Y644829D03*
X601248Y538182D03*
X607436Y639414D03*
X608084Y697776D03*
X614358Y276314D03*
X615876Y254187D03*
X628450Y482950D03*
X629198Y1082280D03*
X629877Y765204D03*
X631096Y285175D03*
X632250Y927750D03*
X635714Y753376D03*
X638716Y158009D03*
X641189Y690352D03*
X643660Y742107D03*
X646139Y145037D03*
X646897Y849615D03*
X647227Y1070686D03*
X649400Y242400D03*
X650568Y818650D03*
Y832050D03*
X653454Y603650D03*
X655118Y690352D03*
X655939Y455021D03*
X655950Y469150D03*
X657950Y734650D03*
Y749150D03*
X658350Y1053950D03*
Y1068450D03*
X658662Y906614D03*
X658876Y877047D03*
X661655Y600094D03*
X664270Y395409D03*
X664805Y657523D03*
X665600Y634646D03*
X672200Y669776D03*
X672796Y712009D03*
X679342Y275658D03*
X679353Y254187D03*
X688127Y142085D03*
X691750Y712074D03*
X693001Y383027D03*
Y391718D03*
Y399468D03*
X693454Y284355D03*
X696250Y489719D03*
Y754650D03*
Y889350D03*
X712900Y242400D03*
X720087Y589717D03*
X724501Y836450D03*
X724921Y477986D03*
X725148Y907800D03*
X725296Y662131D03*
X726196Y742966D03*
X726258Y172350D03*
X749716Y749100D03*
X751204Y1063700D03*
X751900Y826450D03*
X762201Y148414D03*
X764414Y1095473D03*
X764450Y495650D03*
X764850Y931750D03*
X766501Y811000D03*
Y839000D03*
Y996500D03*
X766886Y773470D03*
X768450Y536000D03*
Y564000D03*
Y968500D03*
Y1128500D03*
Y1156500D03*
X775434Y148028D03*
X779357Y894295D03*
X781431Y447447D03*
X785469Y496349D03*
X785540Y772244D03*
X785919Y929549D03*
X786271Y1086764D03*
X790044Y148414D03*
X793700Y438997D03*
X794927Y871682D03*
X795550Y1079750D03*
X795750Y923850D03*
X796145Y1026773D03*
X797450Y489050D03*
Y765150D03*
X797742Y172350D03*
X809950Y1106050D03*
X810150Y518150D03*
Y791350D03*
X810350Y951750D03*
X815625Y554928D03*
X816091Y704901D03*
X817164Y830110D03*
X818878Y988076D03*
X822000Y1146034D03*
X830281Y828850D03*
X842200Y811317D03*
X847791Y1181034D03*
X848919Y774249D03*
X848947Y498600D03*
X849019Y933200D03*
X849677Y1038300D03*
X849973Y729808D03*
X850120Y1089100D03*
X851929Y870364D03*
X852562Y1024900D03*
X854305Y520715D03*
X855065Y953203D03*
X855219Y799550D03*
X859021Y1114893D03*
X859300Y596600D03*
X859585Y875724D03*
X861002Y1024900D03*
X861098Y509717D03*
X861534Y1100393D03*
X862046Y944090D03*
X868890Y710505D03*
X870391Y881357D03*
X875082Y1038300D03*
X876047Y595386D03*
X876290Y729006D03*
X876369Y933200D03*
X876660Y511300D03*
X877075Y1089100D03*
X877450Y803627D03*
X877992Y1101800D03*
X878228Y786392D03*
X878357Y774274D03*
X878501Y498600D03*
X878515Y945304D03*
X878550Y447800D03*
X879237Y887593D03*
X884969Y581300D03*
X893659Y871288D03*
X897617Y572346D03*
X901350Y549650D03*
X902050Y810750D03*
Y822550D03*
Y837250D03*
X902262Y985475D03*
X902321Y999977D03*
X902700Y1140596D03*
X903002Y564150D03*
X903019Y1155096D03*
X910052Y805797D03*
X916696Y787300D03*
X916850Y517250D03*
X917224Y779550D03*
X917242Y503175D03*
X918950Y952550D03*
X919024Y938050D03*
X920150Y1106050D03*
X920288Y1091550D03*
X923649Y796101D03*
X924150Y831719D03*
Y850502D03*
X932279Y794050D03*
X933159Y765150D03*
X933252Y489050D03*
X933806Y923150D03*
X935884Y1079750D03*
X940315Y284826D03*
X946012Y822550D03*
X946050Y172500D03*
Y210000D03*
Y247500D03*
X946145Y835550D03*
X946669Y848550D03*
X949400Y437315D03*
X951906Y872985D03*
X951983Y1027162D03*
X953950Y172500D03*
Y210000D03*
Y247500D03*
X958970Y902295D03*
X964194Y850926D03*
X964221Y833805D03*
X964562Y1011205D03*
X964624Y1020116D03*
X965456Y863260D03*
X969274Y763416D03*
X980826Y1011205D03*
X980928Y850902D03*
X988464Y402935D03*
X990587Y284834D03*
X1039759Y1073826D03*
X1043300Y795856D03*
X1043695Y827766D03*
X1049206Y533748D03*
X1049604Y523799D03*
X1052227Y375516D03*
Y386053D03*
Y395602D03*
X1061537Y480230D03*
X1089109Y468016D03*
X1091659Y823812D03*
X1093756Y749709D03*
X1101309Y1073767D03*
X1114850Y844550D03*
X1115839Y863626D03*
X1121193Y751203D03*
G54D14*
X-198000Y8000D02*
X-102000D01*
Y421000*
X-198000*
Y8000*
G54D15*
X641500Y778950D03*
Y796450D03*
X659400Y849750D03*
Y867250D03*
X751900Y835750D03*
Y853250D03*
X752700Y780750D03*
Y798250D03*
X859500Y818950D03*
Y836450D03*
G54D16*
X360850Y665500D03*
Y690900D03*
X375350Y665500D03*
Y690900D03*
X416850Y640100D03*
X431350D03*
X470350Y665500D03*
Y690900D03*
X484850Y665500D03*
Y690900D03*
X674650Y682600D03*
X689150D03*
G54D17*
X659000Y781050D03*
Y795550D03*
X660200Y817550D03*
Y832050D03*
X678100Y762950D03*
Y777450D03*
X679400Y866550D03*
Y881050D03*
X691000Y762950D03*
Y777450D03*
X691700Y866550D03*
Y881050D03*
X704600Y866550D03*
Y881050D03*
X705200Y762950D03*
Y777450D03*
X717300Y866550D03*
Y881050D03*
X717900Y762950D03*
Y777450D03*
X734800Y836450D03*
Y850950D03*
X735200Y781050D03*
Y795550D03*
X842200Y820450D03*
Y834950D03*
X977900Y284850D03*
Y299350D03*
X1003300Y284850D03*
Y299350D03*
G54D18*
X220000Y170000D03*
X940000Y650000D03*
X1020000Y1160000D03*
G54D19*
X673150Y700300D03*
X690650D03*
G54D20*
X75400Y1094200D03*
G54D21*
Y1155700D03*
G54D22*
X25400Y1122700D03*
G54D23*
X395350Y658700D03*
Y665200D03*
Y671700D03*
Y678200D03*
Y684700D03*
Y691200D03*
Y697700D03*
X452850Y658700D03*
Y665200D03*
Y671700D03*
Y678200D03*
Y684700D03*
Y691200D03*
Y697700D03*
X653050Y610450D03*
Y616950D03*
Y623450D03*
Y629950D03*
Y636450D03*
Y642950D03*
Y649450D03*
Y655950D03*
Y662450D03*
Y668950D03*
X710550Y610450D03*
Y616950D03*
Y623450D03*
Y629950D03*
Y636450D03*
Y642950D03*
Y649450D03*
Y655950D03*
Y662450D03*
Y668950D03*
X877450Y816050D03*
Y822550D03*
Y829050D03*
Y835550D03*
Y842050D03*
Y848550D03*
Y855050D03*
Y861550D03*
Y868050D03*
Y874550D03*
X934950Y816050D03*
Y822550D03*
Y829050D03*
Y835550D03*
Y842050D03*
Y848550D03*
Y855050D03*
Y861550D03*
Y868050D03*
Y874550D03*
G54D24*
X584200Y341100D03*
Y366500D03*
X609600Y341100D03*
Y366500D03*
X635000Y341100D03*
Y366500D03*
X660400Y341100D03*
Y366500D03*
X685800Y341100D03*
Y366500D03*
X711200Y341100D03*
Y366500D03*
X736600Y341100D03*
Y366500D03*
X762000Y341100D03*
Y366500D03*
Y644400D03*
Y669800D03*
X787400Y341100D03*
Y366500D03*
Y644400D03*
Y669800D03*
X812800Y341100D03*
Y366500D03*
Y644400D03*
Y669800D03*
X838200Y341100D03*
Y366500D03*
X863600Y341100D03*
Y366500D03*
X889000Y341100D03*
Y366500D03*
X914400Y341100D03*
Y366500D03*
X939800Y341100D03*
Y366500D03*
X965200Y341100D03*
Y366500D03*
X990600Y341100D03*
Y366500D03*
X1016000Y341100D03*
Y366500D03*
G54D25*
X324800Y952500D03*
Y1054100D03*
Y1155700D03*
X350200Y952500D03*
Y1054100D03*
Y1155700D03*
X375600Y952500D03*
Y1054100D03*
Y1155700D03*
G54D26*
X677600Y793550D03*
Y851050D03*
X684100Y793550D03*
Y851050D03*
X690600Y793550D03*
Y851050D03*
X697100Y793550D03*
Y851050D03*
X703600Y793550D03*
Y851050D03*
X710100Y793550D03*
Y851050D03*
X716600Y793550D03*
Y851050D03*
G54D27*
X152400Y38100D03*
X177800D03*
X228600Y63500D03*
Y88900D03*
G54D28*
X711200Y315700D03*
X736600D03*
X762000D03*
X787400D03*
X812800D03*
X838200D03*
X863600D03*
X889000D03*
G54D29*
X304100Y93800D03*
X915100D03*
G54D70*
X74700Y95500D03*
Y428700D03*
G54D71*
X60500Y178900D03*
Y206500D03*
Y234100D03*
Y261700D03*
Y289300D03*
Y316900D03*
Y344500D03*
X88900Y165100D03*
Y192700D03*
Y220300D03*
Y247900D03*
Y275500D03*
Y303100D03*
Y330700D03*
Y358300D03*
X533400Y391900D03*
Y417300D03*
Y442700D03*
Y468100D03*
Y493500D03*
Y518900D03*
Y544300D03*
Y569700D03*
Y620500D03*
Y645900D03*
Y671300D03*
Y696700D03*
Y722100D03*
Y747500D03*
Y772900D03*
Y798300D03*
Y849100D03*
Y874500D03*
Y899900D03*
Y925300D03*
Y950700D03*
Y976100D03*
Y1001500D03*
Y1026900D03*
X1016000Y442700D03*
Y468100D03*
Y493500D03*
Y518900D03*
Y544300D03*
Y569700D03*
Y595100D03*
Y620500D03*
Y671300D03*
Y696700D03*
Y722100D03*
Y747500D03*
Y772900D03*
Y798300D03*
Y823700D03*
Y849100D03*
Y889700D03*
Y915100D03*
Y940500D03*
Y965900D03*
Y991300D03*
Y1016700D03*
Y1042100D03*
Y1067500D03*
Y1092900D03*
Y1118300D03*
G54D72*
X388800Y68400D03*
Y119200D03*
X402600Y93800D03*
X416400Y68400D03*
Y119200D03*
X430200Y93800D03*
X444000Y68400D03*
Y119200D03*
X457800Y93800D03*
X471600Y68400D03*
Y119200D03*
X485400Y93800D03*
X499200Y68400D03*
Y119200D03*
X513000Y93800D03*
X526800Y68400D03*
Y119200D03*
X540600Y93800D03*
X554400Y68400D03*
Y119200D03*
X568200Y93800D03*
X582000Y68400D03*
Y119200D03*
X595800Y93800D03*
X609600Y68400D03*
Y119200D03*
X623400Y93800D03*
X637200Y68400D03*
Y119200D03*
X651000Y93800D03*
X664800Y68400D03*
Y119200D03*
X678600Y93800D03*
X692400Y68400D03*
Y119200D03*
X706200Y93800D03*
X720000Y68400D03*
Y119200D03*
X733800Y93800D03*
X747600Y68400D03*
Y119200D03*
X761400Y93800D03*
X775200Y68400D03*
Y119200D03*
X789000Y93800D03*
X802800Y68400D03*
Y119200D03*
X816600Y93800D03*
X830400Y68400D03*
Y119200D03*
M02*
