*
G04 Job   : F:\ECADdesigns\1405165-01-00-A\PCB\1405165-01-00-A.pcb*
G04 User  : AT01PC650:at10682*
G04 Layer : Soldermask_Top.gbr*
G04 Date  : Tue May 09 13:27:58 2023*
G04 Soldermask Top*
%ICAS*%
%MOMM*%
%FSLAX54Y54*%
%OFA0.0000B0.0000*%
G90*
G74*
%AMVB_RECTANGLE*
21,1,$1,$2,0,0,$3*
%
%AMVB_RCRECTANGLE*
$3=$3X2*
21,1,$1-$3,$2,0,0,0*
21,1,$1,$2-$3,0,0,0*
$1=$1/2*
$2=$2/2*
$3=$3/2*
$1=$1-$3*
$2=$2-$3*
1,1,$3X2,0-$1,0-$2*
1,1,$3X2,0-$1,$2*
1,1,$3X2,$1,$2*
1,1,$3X2,$1,0-$2*
%
%AMVB_Custom_WE-TPC_M*
$4 = $2X2.6500*
$5 = $3X0.0000*
$6 = $2X0.0000*
$7 = $3X2.6500*
1,1,1.1600,$4-$5,$6+$7*
$4 = $2X-2.6500*
$5 = $3X0.0000*
$6 = $2X0.0000*
$7 = $3X-2.6500*
1,1,1.1600,$4-$5,$6+$7*
4,1,18,3.2300,-1.7800,3.2300,0.0000,2.6500,0.5800,-2.6500,0.5800,-3.2300,0.0000,-3.2300,-1.7800,-1.9330,-1.7800,-1.7110,-1.3982,-1.4145,-1.0709,-1.0566,-0.8121,-0.6529,-0.6330,-0.2208,-0.5415,0.2208,-0.5415,0.6529,-0.6330,1.0566,-0.8121,1.4145,-1.0709,1.7110,-1.3982,1.9330,-1.7800,3.2300,-1.7800,$1*
%
%ADD14C,0.00500*%
%ADD10C,0.01000*%
%ADD13C,0.50000*%
%ADD12C,0.60000*%
%ADD40C,1.45000*%
%ADD30C,1.65000*%
%ADD37C,1.96000*%
%ADD39C,2.36000*%
%ADD11C,3.40000*%
%ADD41C,4.86000*%
%ADD73C,6.51000*%
%ADD33O,4.61000X1.91000*%
%ADD32O,4.61000X2.11000*%
%ADD34O,2.11000X4.61000*%
%ADD25VB_RECTANGLE,1.05000X1.05000X90.00000*%
%ADD70VB_RECTANGLE,2.00000X2.00000X0.00000*%
%ADD21VB_Custom_WE-TPC_M,90.00000X0.00000X1.00000*%
%ADD22VB_Custom_WE-TPC_M,270.00000X-0.00000X-1.00000*%
%ADD23VB_RCRECTANGLE,0.75000X0.40000X0.10000*%
%ADD24VB_RCRECTANGLE,0.40000X0.75000X0.10000*%
%ADD15VB_RCRECTANGLE,1.06000X0.81000X0.23000*%
%ADD16VB_RCRECTANGLE,0.81000X1.06000X0.23000*%
%ADD71VB_RCRECTANGLE,1.06000X0.96000X0.18000*%
%ADD72VB_RCRECTANGLE,0.96000X1.06000X0.18000*%
%ADD31VB_RCRECTANGLE,1.31000X0.51000X0.18000*%
%ADD29VB_RCRECTANGLE,1.46000X0.76000X0.18000*%
%ADD38VB_RCRECTANGLE,0.76000X1.46000X0.18000*%
%ADD18VB_RCRECTANGLE,1.46000X1.01000X0.28000*%
%ADD36VB_RCRECTANGLE,1.76000X0.76000X0.18000*%
%ADD27VB_RCRECTANGLE,0.76000X1.76000X0.18000*%
%ADD20VB_RCRECTANGLE,1.96000X0.91000X0.18000*%
%ADD28VB_RCRECTANGLE,0.91000X1.96000X0.18000*%
%ADD35VB_RCRECTANGLE,1.96000X1.36000X0.18000*%
%ADD26VB_RCRECTANGLE,1.36000X1.96000X0.18000*%
%ADD17VB_RCRECTANGLE,2.96000X1.16000X0.28000*%
%ADD19VB_RCRECTANGLE,1.16000X2.96000X0.28000*%
G01*
G54D10*
X1150000D01*
Y1200000*
X0*
Y0*
G54D11*
X60000Y540000D03*
Y1005000D03*
X1100000Y50000D03*
Y1145000D03*
G54D12*
X0Y0D02*
X1150000D01*
Y1200000*
X0*
Y0*
G54D13*
X-183520Y165492D02*
X-183460Y165252D01*
X-183340Y165102*
X-183130Y165042*
X-182890Y165012*
X-182680Y165042*
X-182470Y165102*
X-182350Y165252*
X-182290Y165492*
Y170742*
X-154780*
Y165492*
X-154720Y165252*
X-154570Y165102*
X-154360Y165042*
X-154120Y165012*
X-153910Y165042*
X-153730Y165102*
X-153580Y165252*
X-153520Y165492*
Y177192*
X-153580Y177402*
X-153730Y177582*
X-153910Y177672*
X-154120Y177702*
X-154360Y177672*
X-154570Y177582*
X-154720Y177402*
X-154780Y177192*
Y171912*
X-182920*
X-183130Y171852*
X-183310Y171732*
X-183460Y171582*
X-183520Y171342*
Y165492*
X-182920Y256182D02*
X-183130Y256122D01*
X-183310Y255972*
X-183400Y255792*
X-183430Y255582*
X-183400Y255372*
X-183310Y255162*
X-183130Y255012*
X-182920Y254982*
X-173230*
Y247632*
X-173170Y247422*
X-173050Y247272*
X-172840Y247182*
X-172630*
X-172420*
X-172210Y247272*
X-172090Y247422*
X-172030Y247632*
Y254982*
X-156160*
X-156010Y255012*
X-155860Y255102*
X-155770Y255162*
X-155710Y255282*
X-153640Y258282*
X-153550Y258402*
X-153520Y258582*
Y262602*
X-153550Y262782*
X-153640Y262932*
X-155710Y265932*
X-155860Y266112*
X-156040Y266172*
X-156250Y266142*
X-156460Y266022*
X-156610Y265872*
X-156730Y265722*
X-156760Y265512*
X-156670Y265302*
X-154750Y262422*
Y258702*
X-156460Y256182*
X-172030*
Y263592*
X-172090Y263802*
X-172210Y263982*
X-172420Y264072*
X-172630Y264102*
X-172840Y264072*
X-173050Y263982*
X-173170Y263802*
X-173230Y263592*
Y256182*
X-182920*
X-182290Y27552D02*
Y41892D01*
X-178510Y46572*
X-172930*
X-169120Y41892*
Y27552*
X-182290*
Y103842D02*
X-182350Y104052D01*
X-182470Y104232*
X-182680Y104322*
X-182890Y104352*
X-183130Y104322*
X-183340Y104232*
X-183460Y104052*
X-183520Y103842*
Y83592*
X-183460Y83382*
X-183310Y83202*
X-183130Y83052*
X-182920Y82992*
X-154120*
X-153910Y83052*
X-153730Y83202*
X-153640Y83382*
X-153610Y83592*
X-153640Y83832*
X-153730Y84042*
X-153910Y84192*
X-154120Y84252*
X-169270*
Y97842*
X-169300Y98052*
X-169450Y98232*
X-169660Y98322*
X-169870Y98352*
X-170110Y98322*
X-170320Y98232*
X-170440Y98052*
X-170500Y97842*
Y84252*
X-182290*
Y103842*
Y153642D02*
X-182350Y153852D01*
X-182470Y154032*
X-182680Y154122*
X-182890Y154152*
X-183130Y154122*
X-183340Y154032*
X-183460Y153852*
X-183520Y153642*
Y133392*
X-183460Y133182*
X-183310Y133002*
X-183130Y132852*
X-182920Y132792*
X-154120*
X-153910Y132852*
X-153730Y133002*
X-153580Y133182*
X-153520Y133392*
Y153642*
X-153580Y153852*
X-153730Y154032*
X-153910Y154122*
X-154120Y154152*
X-154360Y154122*
X-154570Y154032*
X-154720Y153852*
X-154780Y153642*
Y134052*
X-167920*
Y147642*
X-167980Y147852*
X-168130Y148032*
X-168310Y148122*
X-168520Y148152*
X-168730Y148122*
X-168940Y148032*
X-169090Y147852*
X-169120Y147642*
Y134052*
X-182290*
Y153642*
X-174970Y195042D02*
X-174940Y203172D01*
X-174910Y203292*
X-174880Y203412*
X-174790Y203592*
X-168730Y209682*
X-168580Y209712*
X-168460Y209742*
X-168400*
Y209772*
X-168250Y209802*
X-166240*
X-166030Y209772*
X-165850Y209622*
X-165700Y209472*
X-165640Y209202*
Y189612*
X-158440*
X-154720Y195192*
Y202872*
X-160630Y208782*
X-160750Y208962*
Y209172*
X-160690Y209412*
X-160540Y209592*
X-160360Y209712*
X-160150Y209802*
X-159910*
X-159730Y209682*
X-153700Y203592*
X-153580Y203412*
X-153550Y203292*
X-153520Y203172*
Y195042*
X-153550Y194862*
X-153640Y194712*
X-157660Y188682*
X-157720Y188562*
X-157840Y188502*
X-157990Y188412*
X-158140Y188382*
X-170320*
X-170470Y188412*
X-170620Y188502*
X-170710Y188562*
X-170740Y188592*
X-170800Y188682*
X-174820Y194712*
X-174940Y194862*
X-174970Y195042*
X-174130Y233712D02*
X-174280Y233922D01*
X-174460Y233982*
X-174670*
X-174880Y233892*
X-175060Y233772*
X-175210Y233592*
X-175240Y233472*
X-175270Y233382*
X-175240Y233262*
X-175210Y233142*
X-167440Y217902*
X-182920*
X-183130Y217842*
X-183310Y217692*
X-183400Y217482*
X-183430Y217242*
X-183400Y217032*
X-183310Y216852*
X-183130Y216702*
X-182920Y216642*
X-154120*
X-153880Y216702*
X-153730Y216852*
X-153640Y217032*
X-153610Y217242*
X-153640Y217482*
X-153730Y217692*
X-153880Y217842*
X-154120Y217902*
X-166060*
X-167800Y221202*
X-153670Y237102*
X-153550Y237282*
Y237492*
X-153640Y237672*
X-153760Y237852*
X-153940Y237972*
X-154180Y238032*
X-154390*
X-154570Y237912*
X-168400Y222342*
X-174130Y233712*
Y401172D02*
X-174280Y401382D01*
X-174460Y401442*
X-174670*
X-174880Y401352*
X-175060Y401232*
X-175210Y401052*
X-175240Y400932*
X-175270Y400842*
X-175240Y400722*
X-175210Y400602*
X-167440Y385362*
X-182920*
X-183130Y385302*
X-183310Y385152*
X-183400Y384942*
X-183430Y384702*
X-183400Y384492*
X-183310Y384312*
X-183130Y384162*
X-182920Y384102*
X-154120*
X-153880Y384162*
X-153730Y384312*
X-153640Y384492*
X-153610Y384702*
X-153640Y384942*
X-153730Y385152*
X-153880Y385302*
X-154120Y385362*
X-166060*
X-167800Y388662*
X-153670Y404562*
X-153550Y404742*
Y404952*
X-153640Y405132*
X-153760Y405312*
X-153940Y405432*
X-154180Y405492*
X-154390*
X-154570Y405372*
X-168400Y389802*
X-174130Y401172*
X-172120Y47562D02*
X-172180Y47652D01*
X-172330Y47682*
X-172480Y47742*
X-172630Y47772*
X-178810*
X-178960Y47742*
X-179050Y47682*
X-179140*
X-179170Y47652*
X-179200Y47592*
X-179290Y47562*
X-183400Y42462*
X-183460Y42312*
X-183490Y42192*
X-183520Y42072*
Y26952*
X-183460Y26682*
X-183310Y26502*
X-183130Y26352*
X-182920Y26292*
X-154120*
X-153880Y26352*
X-153730Y26502*
X-153640Y26682*
X-153610Y26892*
X-153640Y27132*
X-153730Y27342*
X-153880Y27492*
X-154120Y27552*
X-167920*
Y41652*
X-153940Y46572*
X-153730Y46692*
X-153610Y46902*
X-153580Y47112*
X-153640Y47322*
X-153730Y47502*
X-153910Y47652*
X-154090Y47712*
X-154330Y47682*
X-168310Y42762*
X-172120Y47562*
X-170020Y302682D02*
X-158440D01*
X-154720Y306372*
Y317952*
X-158440Y321672*
X-170020*
X-173740Y317952*
Y306372*
X-170020Y302682*
X-169960Y189612D02*
X-166840D01*
Y208602*
X-168010*
X-173740Y202872*
Y195192*
X-169960Y189612*
X-169030Y70812D02*
X-164920Y75882D01*
X-164800Y75972*
X-164650Y76002*
X-164560Y76032*
X-164470Y76062*
X-164410Y76092*
X-158230*
X-158140Y76062*
X-157930Y76002*
X-157870Y75972*
X-157750Y75882*
X-153640Y70842*
X-153580Y70692*
X-153550Y70662*
Y70572*
X-153520Y70542*
Y70512*
Y70452*
Y60342*
X-153550Y60222*
X-153580Y60102*
X-153640Y59982*
X-157750Y54942*
X-157810Y54852*
X-157900Y54792*
X-157990Y54762*
X-158080Y54732*
X-158290Y54792*
X-158500Y54882*
X-158650Y55032*
X-158770Y55212*
X-158800Y55422*
X-158740Y55632*
X-154750Y60522*
Y70212*
X-158530Y74892*
X-164110*
X-167920Y70212*
Y60342*
Y60192*
X-167950Y60072*
X-168010Y59982*
X-172120Y54942*
X-172150Y54852*
X-172210Y54822*
X-172300Y54762*
X-172510Y54702*
X-172630Y54672*
X-178810*
X-178960Y54702*
X-179080Y54762*
X-179140Y54822*
X-179200Y54852*
X-179290Y54942*
X-183400Y59982*
X-183430Y60102*
X-183460Y60162*
X-183490Y60222*
Y60192*
X-183520Y60342*
Y70452*
X-183490Y70572*
X-183460Y70632*
X-183430Y70722*
X-183400Y70812*
X-180310Y74592*
X-180160Y74742*
X-179980Y74802*
X-179770Y74772*
X-179560Y74682*
X-179410Y74502*
X-179290Y74292*
X-179260Y74082*
X-179320Y73872*
X-182290Y70272*
Y60522*
X-178510Y55902*
X-172930*
X-169120Y60522*
Y70422*
X-169090Y70572*
X-169060Y70692*
X-169030Y70812*
X-154120Y273042D02*
X-153880Y273102D01*
X-153730Y273252*
X-153640Y273432*
X-153610Y273642*
X-153640Y273882*
X-153730Y274092*
X-153880Y274242*
X-154120Y274302*
X-170020*
X-173740Y278922*
Y288612*
X-169810Y293532*
X-169720Y293712*
X-169750Y293922*
X-169840Y294132*
X-169990Y294282*
X-170200Y294402*
X-170410Y294432*
X-170620Y294402*
X-170800Y294282*
X-174820Y289212*
X-174880Y289062*
X-174910Y288942*
X-174940Y288822*
Y278712*
X-174910Y278592*
X-174880Y278502*
X-174820Y278352*
X-171580Y274302*
X-174340*
X-174580Y274242*
X-174730Y274092*
X-174850Y273882*
X-174880Y273642*
X-174850Y273432*
X-174730Y273252*
X-174580Y273102*
X-174340Y273042*
X-170380*
X-170320*
X-170200*
X-154120*
Y349962D02*
X-153880Y349992D01*
X-153730Y350142*
X-153640Y350352*
X-153610Y350562*
X-153640Y350772*
X-153730Y350952*
X-153880Y351102*
X-154120Y351162*
X-170320*
X-170410Y351132*
X-170530Y351072*
X-170680Y351042*
X-170800Y350952*
X-174820Y345882*
X-174880Y345732*
X-174910Y345612*
X-174940Y345492*
Y335382*
X-174910Y335262*
X-174880Y335172*
X-174820Y335022*
X-171580Y330972*
X-174340*
X-174580Y330912*
X-174730Y330762*
X-174850Y330552*
X-174880Y330312*
X-174850Y330102*
X-174730Y329922*
X-174580Y329772*
X-174340Y329712*
X-154120*
X-153880Y329772*
X-153730Y329922*
X-153640Y330102*
X-153610Y330312*
X-153640Y330552*
X-153730Y330762*
X-153880Y330912*
X-154120Y330972*
X-170020*
X-173740Y335592*
Y345282*
X-170020Y349962*
X-154120*
X-153520Y318252D02*
Y306132D01*
Y306012*
X-153550Y305952*
X-153580Y305802*
X-153700Y305652*
X-157720Y301632*
X-157870Y301482*
X-158020Y301452*
X-158170*
X-170320*
X-170410*
X-170590Y301482*
X-170770Y301632*
X-174790Y305652*
X-174880Y305802*
X-174910Y305952*
X-174940Y306012*
X-174970Y306132*
X-174940Y318252*
X-174910Y318372*
X-174880Y318492*
X-174790Y318672*
X-170770Y322752*
X-170620Y322782*
X-170500Y322812*
X-170440Y322842*
X-170410*
X-170320Y322872*
X-158170*
X-158020Y322842*
X-157930Y322812*
X-157720Y322752*
X-153700Y318672*
X-153580Y318492*
X-153550Y318372*
X-153520Y318252*
Y371292D02*
X-153580Y371532D01*
X-153700Y371652*
X-153910Y371742*
X-154120Y371772*
X-154330Y371742*
X-154540Y371652*
X-154660Y371532*
X-154720Y371292*
Y368142*
X-174340*
X-174580Y368082*
X-174730Y367962*
X-174910Y367782*
X-174940Y367572*
Y363852*
X-174910Y363642*
X-174760Y363492*
X-174550Y363402*
X-174340Y363372*
X-174130Y363402*
X-173950Y363492*
X-173800Y363642*
X-173740Y363852*
Y367002*
X-154720*
Y363852*
X-154660Y363642*
X-154540Y363492*
X-154330Y363402*
X-154120Y363372*
X-153910Y363402*
X-153700Y363492*
X-153580Y363642*
X-153520Y363852*
Y371292*
X-131160Y96981D02*
X-131265Y96951D01*
X-131355Y96876*
X-131400Y96786*
X-131415Y96681*
X-131400Y96576*
X-131355Y96471*
X-131265Y96396*
X-131160Y96381*
X-126315*
Y92706*
X-126285Y92601*
X-126225Y92526*
X-126120Y92481*
X-126015*
X-125910*
X-125805Y92526*
X-125745Y92601*
X-125715Y92706*
Y96381*
X-117780*
X-117705Y96396*
X-117630Y96441*
X-117585Y96471*
X-117555Y96531*
X-116520Y98031*
X-116475Y98091*
X-116460Y98181*
Y100191*
X-116475Y100281*
X-116520Y100356*
X-117555Y101856*
X-117630Y101946*
X-117720Y101976*
X-117825Y101961*
X-117930Y101901*
X-118005Y101826*
X-118065Y101751*
X-118080Y101646*
X-118035Y101541*
X-117075Y100101*
Y98241*
X-117930Y96981*
X-125715*
Y100686*
X-125745Y100791*
X-125805Y100881*
X-125910Y100926*
X-126015Y100941*
X-126120Y100926*
X-126225Y100881*
X-126285Y100791*
X-126315Y100686*
Y96981*
X-131160*
Y232806D02*
X-131265Y232776D01*
X-131355Y232701*
X-131400Y232611*
X-131415Y232506*
X-131400Y232401*
X-131355Y232296*
X-131265Y232221*
X-131160Y232206*
X-126315*
Y228531*
X-126285Y228426*
X-126225Y228351*
X-126120Y228306*
X-126015*
X-125910*
X-125805Y228351*
X-125745Y228426*
X-125715Y228531*
Y232206*
X-117780*
X-117705Y232221*
X-117630Y232266*
X-117585Y232296*
X-117555Y232356*
X-116520Y233856*
X-116475Y233916*
X-116460Y234006*
Y236016*
X-116475Y236106*
X-116520Y236181*
X-117555Y237681*
X-117630Y237771*
X-117720Y237801*
X-117825Y237786*
X-117930Y237726*
X-118005Y237651*
X-118065Y237576*
X-118080Y237471*
X-118035Y237366*
X-117075Y235926*
Y234066*
X-117930Y232806*
X-125715*
Y236511*
X-125745Y236616*
X-125805Y236706*
X-125910Y236751*
X-126015Y236766*
X-126120Y236751*
X-126225Y236706*
X-126285Y236616*
X-126315Y236511*
Y232806*
X-131160*
X-130845Y36426D02*
Y43596D01*
X-128955Y45936*
X-126165*
X-124260Y43596*
Y36426*
X-130845*
Y252591D02*
Y259896D01*
X-128985Y261561*
X-126195*
X-124860Y259911*
Y252591*
X-130845*
X-129210Y262191D02*
X-131355Y260256D01*
X-131430Y260151*
X-131460Y260046*
Y252261*
X-131430Y252156*
X-131370Y252066*
X-131265Y251991*
X-131160Y251961*
X-124605*
X-124560*
X-124515*
X-116760*
X-116655Y251991*
X-116550Y252066*
X-116475Y252156*
X-116460Y252261*
Y260136*
X-118605Y262596*
X-118695Y262656*
X-118815Y262686*
X-122025*
X-124515Y260481*
X-125775Y262056*
X-125835Y262101*
X-125910Y262146*
X-125985Y262176*
X-126030Y262191*
X-129210*
X-127185Y108756D02*
X-127170Y112821D01*
X-127155Y112881*
X-127140Y112941*
X-127095Y113031*
X-124065Y116076*
X-123990Y116091*
X-123930Y116106*
X-123900*
Y116121*
X-123825Y116136*
X-122820*
X-122715Y116121*
X-122625Y116046*
X-122550Y115971*
X-122520Y115836*
Y106041*
X-118920*
X-117060Y108831*
Y112671*
X-120015Y115626*
X-120075Y115716*
Y115821*
X-120045Y115941*
X-119970Y116031*
X-119880Y116091*
X-119775Y116136*
X-119655*
X-119565Y116076*
X-116550Y113031*
X-116490Y112941*
X-116475Y112881*
X-116460Y112821*
Y108756*
X-116475Y108666*
X-116520Y108591*
X-118530Y105576*
X-118560Y105516*
X-118620Y105486*
X-118695Y105441*
X-118770Y105426*
X-124860*
X-124935Y105441*
X-125010Y105486*
X-125055Y105516*
X-125070Y105531*
X-125100Y105576*
X-127110Y108591*
X-127170Y108666*
X-127185Y108756*
X-125760Y46431D02*
X-125790Y46476D01*
X-125865Y46491*
X-125940Y46521*
X-126015Y46536*
X-129105*
X-129180Y46521*
X-129225Y46491*
X-129270*
X-129285Y46476*
X-129300Y46446*
X-129345Y46431*
X-131400Y43881*
X-131430Y43806*
X-131445Y43746*
X-131460Y43686*
Y36126*
X-131430Y35991*
X-131355Y35901*
X-131265Y35826*
X-131160Y35796*
X-116760*
X-116640Y35826*
X-116565Y35901*
X-116520Y35991*
X-116505Y36096*
X-116520Y36216*
X-116565Y36321*
X-116640Y36396*
X-116760Y36426*
X-123660*
Y43686*
X-123675Y43791*
X-123690Y43821*
Y43851*
X-123705Y43881*
X-125760Y46431*
X-124845Y120186D02*
X-126720Y122496D01*
Y127296*
X-123810Y129681*
X-118965*
X-117075Y127341*
Y122496*
X-118965Y120186*
X-124845*
Y309246D02*
X-126720Y311556D01*
Y316356*
X-123810Y318741*
X-118965*
X-117075Y316401*
Y311556*
X-118965Y309246*
X-124845*
X-124710Y266766D02*
X-118920D01*
X-117060Y268611*
Y274401*
X-118920Y276261*
X-124710*
X-126570Y274401*
Y268611*
X-124710Y266766*
X-124680Y106041D02*
X-123120D01*
Y115536*
X-123705*
X-126570Y112671*
Y108831*
X-124680Y106041*
X-124245Y252591D02*
Y259881D01*
X-121770Y262086*
X-118950*
X-117075Y259911*
Y252591*
X-124245*
X-121650Y280911D02*
X-123540Y283686D01*
Y287601*
X-121650Y290406*
X-118920*
X-117060Y287601*
Y283686*
X-118920Y280911*
X-121650*
X-118770Y199956D02*
X-118725Y199971D01*
X-118650Y200001*
X-118590Y200031*
X-118545Y200091*
X-116520Y202611*
X-116490Y202671*
X-116475Y202731*
X-116460Y202791*
Y207846*
Y207876*
X-116475Y207906*
Y207921*
Y207951*
X-116490Y207981*
X-116520Y208041*
X-118155Y210081*
X-116760*
X-116640Y210096*
X-116565Y210171*
X-116520Y210276*
X-116505Y210381*
X-116520Y210486*
X-116565Y210576*
X-116640Y210651*
X-116760Y210681*
X-126870*
X-126990Y210651*
X-127065Y210576*
X-127125Y210486*
X-127140Y210381*
X-127125Y210276*
X-127065Y210171*
X-126990Y210096*
X-126870Y210081*
X-118920*
X-117060Y207741*
Y202896*
X-118920Y200586*
X-126870*
X-126990Y200556*
X-127065Y200481*
X-127125Y200376*
X-127140Y200256*
X-127125Y200151*
X-127065Y200061*
X-126990Y199986*
X-126870Y199956*
X-118770*
X-116760Y49971D02*
X-116640Y50001D01*
X-116565Y50076*
X-116520Y50166*
X-116505Y50271*
X-116520Y50391*
X-116565Y50496*
X-116640Y50571*
X-116760Y50601*
X-124710*
X-126570Y52911*
Y57756*
X-124605Y60216*
X-124560Y60306*
X-124575Y60411*
X-124620Y60516*
X-124695Y60591*
X-124800Y60651*
X-124905Y60666*
X-125010Y60651*
X-125100Y60591*
X-127110Y58056*
X-127140Y57981*
X-127155Y57921*
X-127170Y57861*
Y52806*
X-127155Y52746*
X-127140Y52701*
X-127110Y52626*
X-125490Y50601*
X-126870*
X-126990Y50571*
X-127065Y50496*
X-127125Y50391*
X-127140Y50271*
X-127125Y50166*
X-127065Y50076*
X-126990Y50001*
X-126870Y49971*
X-124890*
X-124860*
X-124800*
X-116760*
Y87336D02*
X-116640Y87351D01*
X-116565Y87426*
X-116520Y87531*
X-116505Y87636*
X-116520Y87741*
X-116565Y87831*
X-116640Y87906*
X-116760Y87936*
X-124860*
X-124905Y87921*
X-124965Y87891*
X-125040Y87876*
X-125100Y87831*
X-127110Y85296*
X-127140Y85221*
X-127155Y85161*
X-127170Y85101*
Y80046*
X-127155Y79986*
X-127140Y79941*
X-127110Y79866*
X-125490Y77841*
X-126870*
X-126990Y77811*
X-127065Y77736*
X-127125Y77631*
X-127140Y77511*
X-127125Y77406*
X-127065Y77316*
X-126990Y77241*
X-126870Y77211*
X-116760*
X-116640Y77241*
X-116565Y77316*
X-116520Y77406*
X-116505Y77511*
X-116520Y77631*
X-116565Y77736*
X-116640Y77811*
X-116760Y77841*
X-124710*
X-126570Y80151*
Y84996*
X-124710Y87336*
X-116760*
Y171621D02*
X-116640Y171651D01*
X-116565Y171726*
X-116520Y171816*
X-116505Y171921*
X-116520Y172041*
X-116565Y172146*
X-116640Y172221*
X-116760Y172251*
X-124710*
X-126570Y174561*
Y179406*
X-124605Y181866*
X-124560Y181956*
X-124575Y182061*
X-124620Y182166*
X-124695Y182241*
X-124800Y182301*
X-124905Y182316*
X-125010Y182301*
X-125100Y182241*
X-127110Y179706*
X-127140Y179631*
X-127155Y179571*
X-127170Y179511*
Y174456*
X-127155Y174396*
X-127140Y174351*
X-127110Y174276*
X-125490Y172251*
X-126870*
X-126990Y172221*
X-127065Y172146*
X-127125Y172041*
X-127140Y171921*
X-127125Y171816*
X-127065Y171726*
X-126990Y171651*
X-126870Y171621*
X-124890*
X-124860*
X-124800*
X-116760*
Y290406D02*
X-116640Y290421D01*
X-116565Y290496*
X-116520Y290601*
X-116505Y290706*
X-116520Y290811*
X-116565Y290901*
X-116640Y290976*
X-116760Y291006*
X-124860*
X-124905Y290976*
X-124965*
X-125070Y290931*
X-127095Y288906*
X-127140Y288816*
X-127155Y288756*
X-127170Y288681*
Y280581*
X-127155Y280476*
X-127080Y280386*
X-126975Y280341*
X-126870Y280326*
X-126765Y280341*
X-126675Y280386*
X-126600Y280476*
X-126570Y280581*
Y288531*
X-124710Y290406*
X-122355*
X-124095Y287826*
X-124125Y287766*
X-124140Y287676*
Y283626*
X-124125Y283521*
X-124095Y283461*
X-122055Y280431*
X-122025Y280401*
X-122010Y280386*
X-121995Y280356*
X-121920Y280296*
X-121815Y280281*
X-118770*
X-118695Y280296*
X-118620Y280356*
X-118575Y280386*
X-118545Y280431*
X-116520Y283461*
X-116475Y283536*
X-116460Y283626*
Y287676*
X-116475Y287766*
X-116520Y287826*
X-118215Y290406*
X-116760*
Y294426D02*
X-116640Y294456D01*
X-116565Y294531*
X-116520Y294621*
X-116505Y294726*
X-116520Y294846*
X-116565Y294951*
X-116640Y295026*
X-116760Y295056*
X-124710*
X-126570Y297366*
Y302211*
X-124605Y304671*
X-124560Y304761*
X-124575Y304866*
X-124620Y304971*
X-124695Y305046*
X-124800Y305106*
X-124905Y305121*
X-125010Y305106*
X-125100Y305046*
X-127110Y302511*
X-127140Y302436*
X-127155Y302376*
X-127170Y302316*
Y297261*
X-127155Y297201*
X-127140Y297156*
X-127110Y297081*
X-125490Y295056*
X-126870*
X-126990Y295026*
X-127065Y294951*
X-127125Y294846*
X-127140Y294726*
X-127125Y294621*
X-127065Y294531*
X-126990Y294456*
X-126870Y294426*
X-124890*
X-124860*
X-124800*
X-116760*
X-116520Y122211D02*
X-116490Y122271D01*
X-116475Y122331*
X-116460Y122391*
Y127446*
Y127506*
X-116475Y127536*
X-116490Y127566*
X-116520Y127641*
X-118185Y129681*
X-116760*
X-116640Y129696*
X-116565Y129771*
X-116520Y129876*
X-116505Y129981*
X-116520Y130086*
X-116565Y130176*
X-116640Y130251*
X-116760Y130281*
X-123975*
X-124005*
X-131160*
X-131265Y130251*
X-131355Y130176*
X-131400Y130086*
X-131415Y129981*
X-131400Y129876*
X-131355Y129771*
X-131265Y129696*
X-131160Y129681*
X-124815*
X-127230Y127701*
X-127275Y127641*
X-127320Y127536*
X-127335Y127491*
X-127350Y127446*
Y122391*
X-127320Y122331*
X-127305Y122286*
X-127275Y122211*
X-125220Y119691*
X-125175Y119631*
X-125115Y119601*
X-125040Y119571*
X-124980Y119556*
X-118815*
X-118740Y119571*
X-118680Y119601*
X-118620Y119631*
X-118575Y119691*
X-116520Y122211*
Y147096D02*
X-118575Y144576D01*
X-118620Y144501*
X-118680Y144486*
X-118740Y144456*
X-118815Y144441*
X-129105*
X-129180Y144456*
X-129240Y144486*
X-129270Y144516*
X-129300Y144531*
X-129345Y144561*
X-131400Y147096*
X-131415Y147141*
X-131430Y147186*
X-131445Y147201*
X-131460Y147261*
Y152316*
X-131445Y152391*
X-131430Y152421*
X-131415Y152451*
X-131400Y152511*
X-129345Y155046*
X-129270Y155106*
X-129150Y155136*
X-129075Y155121*
X-128985Y155091*
X-128925Y155046*
X-128865Y154971*
X-128820Y154896*
X-128805Y154821*
Y154746*
X-128850Y154686*
X-130845Y152211*
Y147366*
X-128955Y145056*
X-118965*
X-117075Y147366*
Y152211*
X-119070Y154686*
X-119100Y154746*
X-119115Y154821*
X-119100Y154896*
X-119055Y154971*
X-118995Y155046*
X-118920Y155091*
X-118845Y155121*
X-118740Y155136*
X-118650Y155106*
X-118575Y155046*
X-116520Y152511*
X-116490Y152451*
X-116475Y152436*
Y152391*
X-116460Y152376*
Y152361*
Y152316*
Y147261*
X-116475Y147201*
X-116490Y147141*
X-116520Y147096*
Y311271D02*
X-116490Y311331D01*
X-116475Y311391*
X-116460Y311451*
Y316506*
Y316566*
X-116475Y316596*
X-116490Y316626*
X-116520Y316701*
X-118185Y318741*
X-116760*
X-116640Y318756*
X-116565Y318831*
X-116520Y318936*
X-116505Y319041*
X-116520Y319146*
X-116565Y319236*
X-116640Y319311*
X-116760Y319341*
X-123975*
X-124005*
X-131160*
X-131265Y319311*
X-131355Y319236*
X-131400Y319146*
X-131415Y319041*
X-131400Y318936*
X-131355Y318831*
X-131265Y318756*
X-131160Y318741*
X-124815*
X-127230Y316761*
X-127275Y316701*
X-127320Y316596*
X-127335Y316551*
X-127350Y316506*
Y311451*
X-127320Y311391*
X-127305Y311346*
X-127275Y311271*
X-125220Y308751*
X-125175Y308691*
X-125115Y308661*
X-125040Y308631*
X-124980Y308616*
X-118815*
X-118740Y308631*
X-118680Y308661*
X-118620Y308691*
X-118575Y308751*
X-116520Y311271*
X-116460Y70806D02*
X-116490Y70926D01*
X-116550Y70986*
X-116655Y71031*
X-116760Y71046*
X-116865Y71031*
X-116970Y70986*
X-117030Y70926*
X-117060Y70806*
Y69231*
X-126870*
X-126990Y69201*
X-127065Y69141*
X-127155Y69051*
X-127170Y68946*
Y67086*
X-127155Y66981*
X-127080Y66906*
X-126975Y66861*
X-126870Y66846*
X-126765Y66861*
X-126675Y66906*
X-126600Y66981*
X-126570Y67086*
Y68661*
X-117060*
Y67086*
X-117030Y66981*
X-116970Y66906*
X-116865Y66861*
X-116760Y66846*
X-116655Y66861*
X-116550Y66906*
X-116490Y66981*
X-116460Y67086*
Y70806*
Y165216D02*
X-116490Y165336D01*
X-116550Y165396*
X-116655Y165441*
X-116760Y165456*
X-116865Y165441*
X-116970Y165396*
X-117030Y165336*
X-117060Y165216*
Y163641*
X-126870*
X-126990Y163611*
X-127065Y163551*
X-127155Y163461*
X-127170Y163356*
Y161496*
X-127155Y161391*
X-127080Y161316*
X-126975Y161271*
X-126870Y161256*
X-126765Y161271*
X-126675Y161316*
X-126600Y161391*
X-126570Y161496*
Y163071*
X-117060*
Y161496*
X-117030Y161391*
X-116970Y161316*
X-116865Y161271*
X-116760Y161256*
X-116655Y161271*
X-116550Y161316*
X-116490Y161391*
X-116460Y161496*
Y165216*
Y193236D02*
Y189171D01*
X-116475Y189081*
X-116520Y189006*
X-118530Y185991*
X-118560Y185931*
X-118620Y185901*
X-118695Y185856*
X-118770Y185841*
X-124860*
X-124935Y185856*
X-125010Y185901*
X-125055Y185931*
X-125070Y185946*
X-125100Y185991*
X-127110Y189006*
X-127170Y189081*
X-127185Y189171*
X-127170Y193236*
Y193266*
X-127155*
X-127140Y193341*
X-127095Y193446*
X-124065Y196491*
X-123945Y196536*
X-123840*
X-123735Y196491*
X-123645Y196431*
X-123585Y196341*
X-123540Y196236*
X-123555Y196131*
X-123615Y196041*
X-126570Y193071*
Y189246*
X-124680Y186456*
X-118920*
X-117060Y189246*
Y193071*
X-120015Y196041*
X-120075Y196131*
Y196236*
X-120045Y196356*
X-119970Y196446*
X-119880Y196506*
X-119775Y196551*
X-119655*
X-119565Y196491*
X-116550Y193446*
X-116490Y193341*
X-116475Y193266*
X-116460*
Y193236*
Y220776D02*
X-116490Y220896D01*
X-116550Y220956*
X-116655Y221001*
X-116760Y221016*
X-116865Y221001*
X-116970Y220956*
X-117030Y220896*
X-117060Y220776*
Y219201*
X-126870*
X-126990Y219171*
X-127065Y219111*
X-127155Y219021*
X-127170Y218916*
Y217056*
X-127155Y216951*
X-127080Y216876*
X-126975Y216831*
X-126870Y216816*
X-126765Y216831*
X-126675Y216876*
X-126600Y216951*
X-126570Y217056*
Y218631*
X-117060*
Y217056*
X-117030Y216951*
X-116970Y216876*
X-116865Y216831*
X-116760Y216816*
X-116655Y216831*
X-116550Y216876*
X-116490Y216951*
X-116460Y217056*
Y220776*
Y274551D02*
Y268491D01*
Y268431*
X-116475Y268401*
X-116490Y268326*
X-116550Y268251*
X-118560Y266241*
X-118635Y266166*
X-118710Y266151*
X-118785*
X-124860*
X-124905*
X-124995Y266166*
X-125085Y266241*
X-127095Y268251*
X-127140Y268326*
X-127155Y268401*
X-127170Y268431*
X-127185Y268491*
X-127170Y274551*
X-127155Y274611*
X-127140Y274671*
X-127095Y274761*
X-125085Y276801*
X-125010Y276816*
X-124950Y276831*
X-124920Y276846*
X-124905*
X-124860Y276861*
X-118785*
X-118710Y276846*
X-118665Y276831*
X-118560Y276801*
X-116550Y274761*
X-116490Y274671*
X-116475Y274611*
X-116460Y274551*
X1355Y-42880D02*
X1115Y-42940D01*
X995Y-43060*
X905Y-43270*
X875Y-43510*
X905Y-43720*
X995Y-43930*
X1115Y-44080*
X1355Y-44110*
X13055*
X13265Y-44080*
X13445Y-43930*
X13535Y-43720*
X13565Y-43510*
X13535Y-43270*
X13445Y-43060*
X13265Y-42940*
X13055Y-42880*
X7775*
Y-14710*
X7745Y-14500*
X7655Y-14350*
X7505Y-14260*
X7295Y-14230*
X7145Y-14200*
X6995*
X6875Y-14260*
X6755Y-14380*
X905Y-22600*
X815Y-22810*
Y-23020*
X905Y-23200*
X1055Y-23350*
X1235Y-23470*
X1445Y-23530*
X1565*
X1655Y-23500*
X1805Y-23320*
X6605Y-16600*
Y-42880*
X1355*
X16175Y-75000D02*
X21245Y-79110D01*
X21335Y-79230*
X21365Y-79380*
X21395Y-79470*
X21425Y-79560*
X21455Y-79620*
Y-85800*
X21425Y-85890*
X21365Y-86100*
X21335Y-86160*
X21245Y-86280*
X16205Y-90390*
X16055Y-90450*
X16025Y-90480*
X15965*
X15905Y-90510*
X15875*
X15815*
X5705*
X5585Y-90480*
X5465Y-90450*
X5345Y-90390*
X305Y-86280*
X155Y-86130*
X125Y-86040*
Y-85950*
X155Y-85740*
X275Y-85530*
X395Y-85380*
X575Y-85260*
X785Y-85230*
X995Y-85290*
X5885Y-89280*
X15575*
X20255Y-85500*
Y-79920*
X15575Y-76110*
X5705*
X5585*
X5435Y-76080*
X5345Y-76020*
X305Y-71910*
X245Y-71880*
X185Y-71820*
X125Y-71730*
X65Y-71520*
X35Y-71400*
Y-65220*
X65Y-65070*
X125Y-64950*
X185Y-64890*
X245Y-64830*
X305Y-64740*
X5345Y-60630*
X5465Y-60600*
X5555Y-60570*
X5585Y-60540*
X5705Y-60510*
X15815*
X15935Y-60540*
X15995Y-60570*
X16085Y-60600*
X16175Y-60630*
X19955Y-63720*
X20105Y-63870*
X20165Y-64050*
X20135Y-64260*
X20045Y-64470*
X19895Y-64620*
X19685Y-64740*
X19445Y-64770*
X19235Y-64710*
X15635Y-61740*
X5885*
X1265Y-65520*
Y-71100*
X5885Y-74910*
X15815*
X15935Y-74940*
X16055Y-74970*
X16175Y-75000*
X26405Y-33190D02*
X42545Y-17110D01*
Y-33190*
X26405*
X29615Y-74010D02*
Y-85590D01*
X33305Y-89310*
X44885*
X48605Y-85590*
Y-74010*
X44885Y-70290*
X33305*
X29615Y-74010*
X42545Y-43510D02*
X42575Y-43750D01*
X42725Y-43900*
X42935Y-43990*
X43145Y-44020*
X43355Y-43990*
X43535Y-43900*
X43685Y-43750*
X43745Y-43510*
Y-34420*
X45155*
X45365Y-34360*
X45545Y-34240*
X45635Y-34030*
X45665Y-33820*
X45635Y-33580*
X45545Y-33370*
X45365Y-33220*
X45155Y-33190*
X43745*
Y-15550*
X43715Y-15400*
X43625Y-15280*
X43505Y-15160*
X43355Y-15070*
X43175Y-15010*
X42995Y-14980*
X42845Y-15010*
X42695Y-15130*
X24485Y-33340*
X24365Y-33520*
X24305Y-33700*
X24335Y-33880*
X24455Y-34090*
X24515Y-34240*
X24635Y-34330*
X24755Y-34390*
X24905Y-34420*
X42545*
Y-43510*
X45185Y-90510D02*
X33065D01*
X32945*
X32885Y-90480*
X32735Y-90450*
X32585Y-90330*
X28565Y-86310*
X28445Y-86160*
X28385Y-86010*
Y-85860*
Y-73710*
Y-73620*
X28445Y-73440*
X28565Y-73260*
X32585Y-69240*
X32735Y-69150*
X32885Y-69120*
X32945Y-69090*
X33065Y-69060*
X45185Y-69090*
X45305Y-69120*
X45425Y-69150*
X45605Y-69240*
X49685Y-73260*
X49715Y-73410*
X49745Y-73530*
X49775Y-73590*
Y-73620*
X49805Y-73710*
Y-85860*
X49775Y-86010*
X49745Y-86100*
X49685Y-86310*
X45605Y-90330*
X45425Y-90450*
X45305Y-90480*
X45185Y-90510*
X52955Y-18340D02*
X57995Y-14230D01*
X58115Y-14200*
X58205Y-14170*
X58235Y-14140*
X58355Y-14110*
X68465*
X68585Y-14140*
X68615*
X68645Y-14170*
X68735Y-14200*
X68855Y-14230*
X73895Y-18340*
X73985Y-18490*
X74015Y-18610*
X74075Y-18700*
X74105Y-18820*
Y-39400*
X74075Y-39490*
X74015Y-39700*
X73985Y-39760*
X73895Y-39880*
X68855Y-43990*
X68735Y-44020*
X68675Y-44050*
X68615Y-44080*
X68555Y-44110*
X68465*
X58355*
X58235Y-44080*
X58115Y-44050*
X57995Y-43990*
X52955Y-39880*
X52895Y-39820*
X52835Y-39790*
X52775Y-39700*
X52715Y-39490*
X52685Y-39400*
Y-18820*
X52715Y-18700*
X52775Y-18610*
X52835Y-18490*
X52955Y-18340*
X53915Y-19120D02*
Y-39100D01*
X55685Y-40600*
X70205Y-16930*
X68225Y-15340*
X58535*
X53915Y-19120*
X56645Y-41380D02*
X58535Y-42880D01*
X68225*
X72905Y-39100*
Y-19120*
X71135Y-17710*
X56645Y-41380*
X60995Y-60510D02*
X60755Y-60570D01*
X60635Y-60720*
X60545Y-60900*
X60515Y-61140*
X60545Y-61350*
X60635Y-61560*
X60755Y-61680*
X60995Y-61740*
X66245*
Y-89250*
X60995*
X60755Y-89310*
X60635Y-89460*
X60545Y-89670*
X60515Y-89910*
X60545Y-90120*
X60635Y-90330*
X60755Y-90450*
X60995Y-90510*
X72695*
X72905Y-90450*
X73085Y-90330*
X73175Y-90120*
X73205Y-89910*
X73175Y-89670*
X73085Y-89460*
X72905Y-89310*
X72695Y-89250*
X67415*
Y-61110*
X67385Y-60900*
X67235Y-60720*
X67085Y-60570*
X66845Y-60510*
X60995*
X66402Y612100D03*
X70689Y696710D03*
X73557Y626533D03*
X74228Y799900D03*
X85115Y-73740D02*
X89735Y-69990D01*
X99335*
X104105Y-75810*
Y-85500*
X99425Y-89280*
X89735*
X85115Y-85500*
Y-73740*
X86675Y-24430D02*
X86555Y-24460D01*
X86465Y-24490*
X86345Y-24550*
X82265Y-27850*
Y-15340*
X101855*
X102065Y-15280*
X102245Y-15160*
X102335Y-14950*
X102365Y-14740*
X102335Y-14500*
X102245Y-14320*
X102065Y-14170*
X101855Y-14110*
X81605*
X81395Y-14170*
X81215Y-14320*
X81065Y-14500*
X81005Y-14710*
Y-29140*
X81035Y-29350*
X81125Y-29500*
X81245Y-29590*
X81455Y-29650*
X81605Y-29710*
X81725Y-29740*
X81875Y-29710*
X81995Y-29620*
X86885Y-25630*
X96575*
X101255Y-29440*
Y-39100*
X96575Y-42850*
X86885*
X81995Y-38890*
X81785Y-38800*
X81605*
X81425Y-38920*
X81245Y-39070*
X81125Y-39280*
X81095Y-39490*
X81125Y-39700*
X81275Y-39850*
X86345Y-43990*
X86435Y-44050*
X86555*
X86675Y-44110*
X96785*
X96875*
X96905Y-44080*
X96935*
X96995Y-44050*
X97055*
X97175Y-43990*
X102245Y-39850*
X102335Y-39760*
X102365Y-39700*
X102425Y-39520*
X102455Y-39400*
Y-29140*
X102425Y-29020*
X102365Y-28840*
Y-28780*
X102335Y-28750*
X102275Y-28690*
X102245Y-28630*
X97175Y-24550*
X97025Y-24490*
X96905Y-24460*
X96785Y-24430*
X86675*
X89195Y-90390D02*
X89285Y-90450D01*
X89405Y-90480*
X89525Y-90510*
X99635*
X99755*
X99815Y-90480*
X99875Y-90450*
X100025Y-90390*
X104105Y-87060*
Y-89910*
X104135Y-90150*
X104285Y-90300*
X104495Y-90390*
X104705Y-90420*
X104915Y-90390*
X105095Y-90300*
X105245Y-90150*
X105305Y-89910*
Y-75480*
Y-75420*
Y-61110*
X105245Y-60900*
X105095Y-60720*
X104915Y-60630*
X104705Y-60600*
X104495Y-60630*
X104285Y-60720*
X104135Y-60900*
X104105Y-61110*
Y-73800*
X100145Y-68970*
X100025Y-68880*
X99815Y-68790*
X99725Y-68760*
X99635Y-68730*
X89525*
X89405Y-68790*
X89315Y-68820*
X89195Y-68880*
X84125Y-72990*
X84005Y-73080*
X83945Y-73200*
X83885Y-73350*
X83855Y-73470*
Y-85800*
X83885Y-85950*
X83945Y-86070*
X84005Y-86190*
X84125Y-86280*
X89195Y-90390*
X91792Y866700D03*
X97950Y814250D03*
X104458Y626450D03*
X104608Y753900D03*
Y936700D03*
X107972Y784447D03*
X113405Y-74070D02*
Y-77190D01*
X132395*
Y-76020*
X126665Y-70290*
X118985*
X113405Y-74070*
X113705Y-42880D02*
X113465Y-42940D01*
X113345Y-43060*
X113255Y-43270*
X113225Y-43510*
X113255Y-43720*
X113345Y-43930*
X113465Y-44080*
X113705Y-44110*
X125405*
X125615Y-44080*
X125795Y-43930*
X125885Y-43720*
X125915Y-43510*
X125885Y-43270*
X125795Y-43060*
X125615Y-42940*
X125405Y-42880*
X120125*
Y-14710*
X120095Y-14500*
X120005Y-14350*
X119855Y-14260*
X119645Y-14230*
X119495Y-14200*
X119345*
X119225Y-14260*
X119105Y-14380*
X113255Y-22600*
X113165Y-22810*
Y-23020*
X113255Y-23200*
X113405Y-23350*
X113585Y-23470*
X113795Y-23530*
X113915*
X114005Y-23500*
X114155Y-23320*
X118955Y-16600*
Y-42880*
X113705*
X114100Y320303D03*
Y330670D03*
X118835Y-69060D02*
X126965Y-69090D01*
X127085Y-69120*
X127205Y-69150*
X127385Y-69240*
X133475Y-75300*
X133505Y-75450*
X133535Y-75570*
Y-75630*
X133565*
X133595Y-75780*
Y-77790*
X133565Y-78000*
X133415Y-78180*
X133265Y-78330*
X132995Y-78390*
X113405*
Y-85590*
X118985Y-89310*
X126665*
X132575Y-83400*
X132755Y-83280*
X132965*
X133205Y-83340*
X133385Y-83490*
X133535Y-83670*
X133595Y-83880*
Y-84120*
X133475Y-84300*
X127385Y-90330*
X127205Y-90450*
X127085Y-90480*
X126965Y-90510*
X118835*
X118655Y-90480*
X118505Y-90390*
X112475Y-86370*
X112355Y-86310*
X112295Y-86190*
X112205Y-86040*
X112175Y-85890*
Y-73710*
X112205Y-73560*
X112295Y-73410*
X112355Y-73320*
X112415Y-73290*
X112475Y-73230*
X118505Y-69210*
X118655Y-69090*
X118835Y-69060*
X128016Y814250D03*
X130150Y121550D03*
X133508Y234100D03*
X140435Y-89910D02*
X140495Y-90150D01*
X140645Y-90300*
X140825Y-90390*
X141035Y-90420*
X141275Y-90390*
X141485Y-90300*
X141635Y-90150*
X141695Y-89910*
Y-74010*
X146315Y-70290*
X156005*
X160925Y-74220*
X161105Y-74310*
X161315Y-74280*
X161525Y-74190*
X161675Y-74040*
X161795Y-73830*
X161825Y-73620*
X161795Y-73410*
X161675Y-73230*
X156605Y-69210*
X156455Y-69150*
X156335Y-69120*
X156215Y-69090*
X146105*
X145985Y-69120*
X145895Y-69150*
X145775Y-69210*
X141695Y-72450*
Y-69690*
X141635Y-69450*
X141485Y-69300*
X141275Y-69210*
X141035Y-69150*
X140825Y-69210*
X140645Y-69300*
X140495Y-69450*
X140435Y-69690*
Y-73650*
Y-73710*
Y-73830*
Y-89910*
X142325Y-24430D02*
X142205Y-24460D01*
X142115Y-24490*
X141995Y-24550*
X137915Y-27850*
Y-15340*
X157505*
X157715Y-15280*
X157895Y-15160*
X157985Y-14950*
X158015Y-14740*
X157985Y-14500*
X157895Y-14320*
X157715Y-14170*
X157505Y-14110*
X137255*
X137045Y-14170*
X136865Y-14320*
X136715Y-14500*
X136655Y-14710*
Y-29140*
X136685Y-29350*
X136775Y-29500*
X136895Y-29590*
X137105Y-29650*
X137255Y-29710*
X137375Y-29740*
X137525Y-29710*
X137645Y-29620*
X142535Y-25630*
X152225*
X156905Y-29440*
Y-39100*
X152225Y-42850*
X142535*
X137645Y-38890*
X137435Y-38800*
X137255*
X137075Y-38920*
X136895Y-39070*
X136775Y-39280*
X136745Y-39490*
X136775Y-39700*
X136925Y-39850*
X141995Y-43990*
X142085Y-44050*
X142205*
X142325Y-44110*
X152435*
X152525*
X152555Y-44080*
X152585*
X152645Y-44050*
X152705*
X152825Y-43990*
X157895Y-39850*
X157985Y-39760*
X158015Y-39700*
X158075Y-39520*
X158105Y-39400*
Y-29140*
X158075Y-29020*
X158015Y-28840*
Y-28780*
X157985Y-28750*
X157925Y-28690*
X157895Y-28630*
X152825Y-24550*
X152675Y-24490*
X152555Y-24460*
X152435Y-24430*
X142325*
X144762Y1185059D03*
X145045Y1009396D03*
Y1057610D03*
X145074Y1131385D03*
X152664Y60561D03*
X156550Y785000D03*
X157310Y230429D03*
X161258Y457100D03*
X161950Y121550D03*
X164506Y521589D03*
X164650Y495011D03*
X166265Y-31450D02*
Y-39100D01*
X170885Y-42880*
X180575*
X185255Y-39100*
Y-31450*
X180575Y-27640*
X170885*
X166265Y-31450*
X174500Y920483D03*
X180702Y612100D03*
X181205Y-14230D02*
X186245Y-18340D01*
X186395Y-18490*
X186425Y-18730*
X186395Y-18910*
X186335Y-19060*
X186245Y-19180*
X186095Y-19300*
X185945Y-19390*
X185795Y-19420*
X185645*
X185525Y-19330*
X180605Y-15340*
X170885*
X166265Y-19120*
Y-29890*
X170345Y-26560*
X170465Y-26530*
X170525Y-26500*
X170555*
Y-26470*
X170705Y-26440*
X180815*
X180935Y-26470*
Y-26500*
X180995*
X181085Y-26530*
X181175Y-26560*
X186245Y-30640*
X186275Y-30730*
X186335Y-30760*
X186365Y-30790*
Y-30850*
X186425Y-31060*
X186455Y-31150*
Y-39400*
X186425Y-39550*
X186365Y-39670*
X186335Y-39790*
X186245Y-39880*
X181205Y-43990*
X181055Y-44050*
X181025Y-44080*
X180965*
X180905Y-44110*
X180875*
X180815*
X170705*
X170585Y-44080*
X170465Y-44050*
X170345Y-43990*
X165305Y-39880*
X165245Y-39820*
X165185Y-39790*
X165125Y-39700*
X165065Y-39490*
X165035Y-39400*
Y-18820*
X165065Y-18670*
X165125Y-18550*
X165185Y-18490*
X165245Y-18430*
X165305Y-18340*
X170345Y-14230*
X170465Y-14200*
X170555Y-14170*
X170585Y-14140*
X170705Y-14110*
X180815*
X180935Y-14140*
X180965*
X180995Y-14170*
X181085Y-14200*
X181205Y-14230*
X185897Y557307D03*
Y592234D03*
X186908Y866700D03*
X189000Y626450D03*
X190265Y-71700D02*
X190205Y-71580D01*
X190175Y-71370*
X190055Y-71220*
X186995Y-69180*
X186845Y-69090*
X186665Y-69060*
X182615*
X182435Y-69090*
X182315Y-69180*
X179555Y-71010*
X176855Y-69180*
X176705Y-69090*
X176555Y-69060*
X172475*
X172295Y-69090*
X172175Y-69180*
X170075Y-70620*
Y-69660*
X170015Y-69420*
X169865Y-69270*
X169655Y-69180*
X169415Y-69120*
X169205Y-69180*
X169025Y-69270*
X168875Y-69420*
X168815Y-69660*
Y-89880*
X168875Y-90120*
X169025Y-90270*
X169205Y-90360*
X169415Y-90390*
X169655Y-90360*
X169865Y-90270*
X170015Y-90120*
X170075Y-89880*
Y-72000*
X172595Y-70260*
X176375*
X178955Y-72000*
Y-89910*
X178985Y-90150*
X179135Y-90300*
X179345Y-90390*
X179555Y-90420*
X179795Y-90390*
X180005Y-90300*
X180125Y-90150*
X180185Y-89910*
Y-72030*
X182765Y-70230*
X186545*
X189065Y-72000*
Y-89910*
X189095Y-90150*
X189245Y-90300*
X189455Y-90390*
X189665Y-90420*
X189875Y-90390*
X190055Y-90300*
X190205Y-90150*
X190265Y-89910*
Y-71700*
X190951Y380367D03*
Y424547D03*
X197495Y-30790D02*
X207125D01*
X207335Y-30820*
X207485Y-30940*
X207575Y-31090*
X207605Y-31270*
X207575Y-31510*
X207485Y-31660*
X207335Y-31780*
X207125Y-31810*
X197495*
X197285Y-31780*
X197135Y-31660*
X197045Y-31510*
X197015Y-31270*
X197045Y-31090*
X197105Y-30940*
X197255Y-30820*
X197495Y-30790*
X198365Y-80130D02*
X203945Y-76350D01*
X211745*
X217355Y-80130*
Y-85590*
X211745Y-89310*
X203945*
X198365Y-85590*
Y-80130*
X200371Y342800D03*
X200872Y799900D03*
X207309Y671613D03*
X211500Y203200D03*
X212250Y814250D03*
X212292Y228600D03*
X217355Y-89910D02*
X217385Y-90150D01*
X217535Y-90300*
X217745Y-90390*
X217955Y-90420*
X218165Y-90390*
X218345Y-90300*
X218495Y-90150*
X218555Y-89910*
Y-73710*
X218495Y-73620*
Y-73500*
X218435Y-73290*
X214355Y-69240*
X214175Y-69150*
X214055Y-69120*
X213935Y-69090*
X197705*
X197495Y-69120*
X197345Y-69270*
X197225Y-69480*
X197195Y-69690*
X197225Y-69900*
X197345Y-70080*
X197495Y-70230*
X197705Y-70290*
X213605*
X217355Y-74010*
Y-78720*
X212195Y-75240*
X212075Y-75180*
X211895Y-75150*
X203795*
X203585Y-75180*
X203465Y-75240*
X197405Y-79320*
X197345Y-79380*
X197315Y-79410*
X197255Y-79440*
X197135Y-79590*
X197105Y-79800*
Y-85890*
X197135Y-86040*
X197255Y-86190*
X197315Y-86280*
X197405Y-86340*
X203465Y-90390*
X203615Y-90480*
X203795Y-90510*
X211895*
X212075Y-90480*
X212195Y-90390*
X217355Y-87000*
Y-89910*
X218758Y626450D03*
X218908Y753900D03*
Y936700D03*
X220865Y-18340D02*
X225905Y-14230D01*
X226025Y-14200*
X226115Y-14170*
X226145Y-14140*
X226265Y-14110*
X236375*
X236495Y-14140*
X236525*
X236555Y-14170*
X236645Y-14200*
X236765Y-14230*
X241805Y-18340*
X241895Y-18490*
X241925Y-18610*
X241985Y-18700*
X242015Y-18820*
Y-39400*
X241985Y-39490*
X241925Y-39700*
X241895Y-39760*
X241805Y-39880*
X236765Y-43990*
X236645Y-44020*
X236585Y-44050*
X236525Y-44080*
X236465Y-44110*
X236375*
X226265*
X226145Y-44080*
X226025Y-44050*
X225905Y-43990*
X220865Y-39880*
X220805Y-39820*
X220745Y-39790*
X220685Y-39700*
X220625Y-39490*
X220595Y-39400*
Y-18820*
X220625Y-18700*
X220685Y-18610*
X220745Y-18490*
X220865Y-18340*
X221825Y-19120D02*
Y-39100D01*
X223595Y-40600*
X238115Y-16930*
X236135Y-15340*
X226445*
X221825Y-19120*
X224555Y-41380D02*
X226445Y-42880D01*
X236135*
X240815Y-39100*
Y-19120*
X239045Y-17710*
X224555Y-41380*
X227482Y342800D03*
X228600Y803908D03*
X231169Y380625D03*
Y425063D03*
X234142Y557307D03*
Y592322D03*
X241535Y-69180D02*
X246575Y-72210D01*
X246695Y-72300*
X246755Y-72390*
X246815Y-72480*
Y-72600*
X246785Y-72780*
X246755Y-72930*
X246665Y-73080*
X246545Y-73200*
X246425Y-73320*
X246275Y-73350*
X246125Y-73320*
X245945Y-73260*
X241025Y-70290*
X231245*
X226655Y-73080*
Y-77400*
X230225Y-79200*
X242225*
X242315Y-79230*
X242375*
X242465Y-79260*
Y-79290*
X246545Y-81300*
X246695Y-81450*
X246755Y-81600*
X246815Y-81690*
X246845Y-81810*
Y-86880*
X246815Y-86970*
X246755Y-87180*
X246725Y-87270*
X246635Y-87360*
X242555Y-90390*
X242495Y-90420*
X242435Y-90480*
X242375*
X242345Y-90510*
X242285*
X242225*
X230105*
X229985*
X229925Y-90480*
X229805Y-90450*
X229715Y-90390*
X225695Y-87330*
X225545Y-87180*
X225515Y-87090*
Y-87000*
X225545Y-86790*
X225665Y-86580*
X225785Y-86430*
X225965Y-86310*
X226085Y-86280*
X226175*
X226295Y-86340*
X226385Y-86400*
X230285Y-89310*
X241985*
X245645Y-86580*
Y-82200*
X242105Y-80400*
X230105*
X229955*
X229895Y-80370*
X229805Y-80310*
X225785Y-78300*
X225605Y-78210*
X225515Y-78060*
X225455Y-77940*
X225425Y-77790*
Y-72720*
Y-72570*
X225455Y-72480*
X225545Y-72360*
X225725Y-72210*
X230765Y-69180*
X230885Y-69120*
X231005Y-69090*
X231065*
X241175*
X241205*
X241265Y-69120*
X241385Y-69150*
X241535Y-69180*
X242450Y1022500D03*
X250850Y225400D03*
X253265Y-42880D02*
X253025Y-42940D01*
X252905Y-43060*
X252815Y-43270*
X252785Y-43510*
X252815Y-43720*
X252905Y-43930*
X253025Y-44080*
X253265Y-44110*
X264965*
X265175Y-44080*
X265355Y-43930*
X265445Y-43720*
X265475Y-43510*
X265445Y-43270*
X265355Y-43060*
X265175Y-42940*
X264965Y-42880*
X259685*
Y-14710*
X259655Y-14500*
X259565Y-14350*
X259415Y-14260*
X259205Y-14230*
X259055Y-14200*
X258905*
X258785Y-14260*
X258665Y-14380*
X252815Y-22600*
X252725Y-22810*
Y-23020*
X252815Y-23200*
X252965Y-23350*
X253145Y-23470*
X253355Y-23530*
X253475*
X253565Y-23500*
X253715Y-23320*
X258515Y-16600*
Y-42880*
X253265*
X256858Y676650D03*
Y803650D03*
X260849Y1128895D03*
X260850Y530200D03*
X261317Y1185059D03*
X264400Y228950D03*
X266980Y266800D03*
X267150Y726600D03*
X270815Y-69900D02*
X270935Y-69840D01*
X271025Y-69750*
X271085Y-69570*
Y-69360*
X271025Y-69150*
X270875Y-68970*
X270695Y-68820*
X270575Y-68790*
X270485Y-68760*
X270365Y-68790*
X270245Y-68820*
X255005Y-76590*
Y-61110*
X254945Y-60900*
X254795Y-60720*
X254585Y-60630*
X254345Y-60600*
X254135Y-60630*
X253955Y-60720*
X253805Y-60900*
X253745Y-61110*
Y-89910*
X253805Y-90150*
X253955Y-90300*
X254135Y-90390*
X254345Y-90420*
X254585Y-90390*
X254795Y-90300*
X254945Y-90150*
X255005Y-89910*
Y-77970*
X258305Y-76230*
X274205Y-90360*
X274385Y-90480*
X274595*
X274775Y-90390*
X274955Y-90270*
X275075Y-90090*
X275135Y-89850*
Y-89640*
X275015Y-89460*
X259445Y-75630*
X270815Y-69900*
X281502Y495750D03*
X282323Y706000D03*
X282495Y456584D03*
X282574Y578396D03*
X282612Y408368D03*
X285250Y599600D03*
X301150Y676650D03*
Y803650D03*
X305614Y381010D03*
X305617Y593021D03*
X305758Y457100D03*
Y647600D03*
X309227Y188401D03*
X309682Y160241D03*
Y169853D03*
Y178997D03*
X312300Y494898D03*
X313625Y-89910D02*
X313655Y-90120D01*
X313805Y-90300*
X314015Y-90390*
X314225Y-90420*
X314435Y-90390*
X314615Y-90300*
X314765Y-90120*
X314825Y-89910*
Y-61740*
X324335*
X324545Y-61680*
X324725Y-61560*
X324815Y-61350*
X324845Y-61140*
X324815Y-60900*
X324725Y-60690*
X324545Y-60540*
X324335Y-60510*
X304085*
X303875Y-60540*
X303725Y-60690*
X303605Y-60900*
X303575Y-61140*
X303605Y-61350*
X303725Y-61560*
X303875Y-61680*
X304085Y-61740*
X313625*
Y-89910*
X328366Y707405D03*
X333073Y489217D03*
X333095Y-74010D02*
Y-85590D01*
X336785Y-89310*
X348365*
X352085Y-85590*
Y-74010*
X348365Y-70290*
X336785*
X333095Y-74010*
X335442Y571600D03*
X335896Y615094D03*
X336900Y203200D03*
X338201Y425100D03*
X340515Y342800D03*
X348665Y-90510D02*
X336545D01*
X336425*
X336365Y-90480*
X336215Y-90450*
X336065Y-90330*
X332045Y-86310*
X331925Y-86160*
X331865Y-86010*
Y-85860*
Y-73710*
Y-73620*
X331925Y-73440*
X332045Y-73260*
X336065Y-69240*
X336215Y-69150*
X336365Y-69120*
X336425Y-69090*
X336545Y-69060*
X348665Y-69090*
X348785Y-69120*
X348905Y-69150*
X349085Y-69240*
X353165Y-73260*
X353195Y-73410*
X353225Y-73530*
X353255Y-73590*
Y-73620*
X353285Y-73710*
Y-85860*
X353255Y-86010*
X353225Y-86100*
X353165Y-86310*
X349085Y-90330*
X348905Y-90450*
X348785Y-90480*
X348665Y-90510*
X351726Y425100D03*
X354408Y497841D03*
X355200Y520700D03*
X356792Y228600D03*
X360155Y-102270D02*
Y-69270D01*
X360215Y-69030*
X360335Y-68850*
X360545Y-68730*
X360755Y-68700*
X360995Y-68730*
X361205Y-68850*
X361325Y-69030*
X361385Y-69270*
Y-73890*
X366425Y-68760*
X366545Y-68670*
X366665Y-68640*
X366725Y-68610*
X366845*
X374945*
X375065Y-68640*
X375185Y-68670*
X375365Y-68760*
X381455Y-74970*
X381515Y-75180*
X381545Y-75270*
X381575Y-75420*
Y-83700*
Y-83790*
X381545Y-83850*
X381515Y-83970*
X381455Y-84150*
X375365Y-90330*
X375185Y-90450*
X375065Y-90480*
X374945Y-90510*
X366845*
X366725*
X366665Y-90480*
X366545Y-90450*
X366395Y-90330*
X361385Y-85260*
Y-102270*
X361325Y-102480*
X361205Y-102660*
X360995Y-102750*
X360755Y-102780*
X360545Y-102750*
X360335Y-102660*
X360215Y-102480*
X360155Y-102270*
X361385Y-75690D02*
Y-83400D01*
X367115Y-89280*
X374645*
X380375Y-83400*
Y-75720*
X374645Y-69840*
X367115*
X361385Y-75690*
X364942Y553025D03*
X367686Y615654D03*
X369825Y266800D03*
X375176Y344772D03*
X375792Y552835D03*
X376655Y707537D03*
X385682Y562800D03*
X387850Y225400D03*
X401400Y240400D03*
X405580Y814892D03*
X407092Y839167D03*
X407139Y381100D03*
X407460Y592877D03*
X409501Y671700D03*
Y684700D03*
X412850Y985000D03*
X414850Y926000D03*
X414918Y630517D03*
X424355Y578726D03*
X427417Y716747D03*
X430918Y630356D03*
X440939Y671511D03*
X442800Y748200D03*
X444000Y41023D03*
X444225Y1114729D03*
X446325Y1082470D03*
X452719Y1004726D03*
X463331Y681870D03*
X476250Y759802D03*
X477708Y962301D03*
X478589Y937253D03*
X478877Y716450D03*
X479393Y1066400D03*
X504600Y932100D03*
X507100Y1006400D03*
Y1138000D03*
X507152Y1158000D03*
X507401Y1077894D03*
Y1148000D03*
X510596Y1056400D03*
X556874Y768846D03*
X562664Y683382D03*
X566629Y544279D03*
X573194Y500765D03*
X574894Y168075D03*
X578050Y977500D03*
X578674Y495285D03*
X586235Y510534D03*
X587126Y162773D03*
X587450Y1112750D03*
X587850Y795850D03*
X589054Y542626D03*
X591287Y957172D03*
X594597Y644829D03*
X601248Y538182D03*
X607436Y639414D03*
X608084Y697776D03*
X614358Y276314D03*
X615876Y254187D03*
X628450Y482950D03*
X629198Y1082280D03*
X629877Y765204D03*
X631096Y285175D03*
X632250Y927750D03*
X635714Y753376D03*
X638716Y158009D03*
X641189Y690352D03*
X643660Y742107D03*
X646139Y145037D03*
X646897Y849615D03*
X647227Y1070686D03*
X649400Y242400D03*
X650568Y818650D03*
Y832050D03*
X653454Y603650D03*
X655118Y690352D03*
X655939Y455021D03*
X655950Y469150D03*
X657950Y734650D03*
Y749150D03*
X658350Y1053950D03*
Y1068450D03*
X658662Y906614D03*
X658876Y877047D03*
X661655Y600094D03*
X664270Y395409D03*
X664805Y657523D03*
X665600Y634646D03*
X672200Y669776D03*
X672796Y712009D03*
X679342Y275658D03*
X679353Y254187D03*
X688127Y142085D03*
X691750Y712074D03*
X693001Y383027D03*
Y391718D03*
Y399468D03*
X693454Y284355D03*
X696250Y489719D03*
Y754650D03*
Y889350D03*
X712900Y242400D03*
X720087Y589717D03*
X724501Y836450D03*
X724921Y477986D03*
X725148Y907800D03*
X725296Y662131D03*
X726196Y742966D03*
X726258Y172350D03*
X749716Y749100D03*
X751204Y1063700D03*
X751900Y826450D03*
X762201Y148414D03*
X764414Y1095473D03*
X764450Y495650D03*
X764850Y931750D03*
X766501Y811000D03*
Y839000D03*
Y996500D03*
X766886Y773470D03*
X768450Y536000D03*
Y564000D03*
Y968500D03*
Y1128500D03*
Y1156500D03*
X775434Y148028D03*
X779357Y894295D03*
X781431Y447447D03*
X785469Y496349D03*
X785540Y772244D03*
X785919Y929549D03*
X786271Y1086764D03*
X790044Y148414D03*
X793700Y438997D03*
X794927Y871682D03*
X795550Y1079750D03*
X795750Y923850D03*
X796145Y1026773D03*
X797450Y489050D03*
Y765150D03*
X797742Y172350D03*
X809950Y1106050D03*
X810150Y518150D03*
Y791350D03*
X810350Y951750D03*
X815625Y554928D03*
X816091Y704901D03*
X817164Y830110D03*
X818878Y988076D03*
X822000Y1146034D03*
X830281Y828850D03*
X842200Y811317D03*
X847791Y1181034D03*
X848919Y774249D03*
X848947Y498600D03*
X849019Y933200D03*
X849677Y1038300D03*
X849973Y729808D03*
X850120Y1089100D03*
X851929Y870364D03*
X852562Y1024900D03*
X854305Y520715D03*
X855065Y953203D03*
X855219Y799550D03*
X859021Y1114893D03*
X859300Y596600D03*
X859585Y875724D03*
X861002Y1024900D03*
X861098Y509717D03*
X861534Y1100393D03*
X862046Y944090D03*
X868890Y710505D03*
X870391Y881357D03*
X875082Y1038300D03*
X876047Y595386D03*
X876290Y729006D03*
X876369Y933200D03*
X876660Y511300D03*
X877075Y1089100D03*
X877450Y803627D03*
X877992Y1101800D03*
X878228Y786392D03*
X878357Y774274D03*
X878501Y498600D03*
X878515Y945304D03*
X878550Y447800D03*
X879237Y887593D03*
X884969Y581300D03*
X893659Y871288D03*
X897617Y572346D03*
X901350Y549650D03*
X902050Y810750D03*
Y822550D03*
Y837250D03*
X902262Y985475D03*
X902321Y999977D03*
X902700Y1140596D03*
X903002Y564150D03*
X903019Y1155096D03*
X910052Y805797D03*
X916696Y787300D03*
X916850Y517250D03*
X917224Y779550D03*
X917242Y503175D03*
X918950Y952550D03*
X919024Y938050D03*
X920150Y1106050D03*
X920288Y1091550D03*
X923649Y796101D03*
X924150Y831719D03*
Y850502D03*
X932279Y794050D03*
X933159Y765150D03*
X933252Y489050D03*
X933806Y923150D03*
X935884Y1079750D03*
X940315Y284826D03*
X946012Y822550D03*
X946050Y172500D03*
Y210000D03*
Y247500D03*
X946145Y835550D03*
X946669Y848550D03*
X949400Y437315D03*
X951906Y872985D03*
X951983Y1027162D03*
X953950Y172500D03*
Y210000D03*
Y247500D03*
X958970Y902295D03*
X964194Y850926D03*
X964221Y833805D03*
X964562Y1011205D03*
X964624Y1020116D03*
X965456Y863260D03*
X969274Y763416D03*
X980826Y1011205D03*
X980928Y850902D03*
X988464Y402935D03*
X990587Y284834D03*
X1039759Y1073826D03*
X1043300Y795856D03*
X1043695Y827766D03*
X1049206Y533748D03*
X1049604Y523799D03*
X1052227Y375516D03*
Y386053D03*
Y395602D03*
X1061537Y480230D03*
X1089109Y468016D03*
X1091659Y823812D03*
X1093756Y749709D03*
X1101309Y1073767D03*
X1114850Y844550D03*
X1115839Y863626D03*
X1121193Y751203D03*
G54D14*
X-198000Y8000D02*
X-102000D01*
Y421000*
X-198000*
Y8000*
G54D15*
X139700Y68950D03*
Y83450D03*
Y107050D03*
Y121550D03*
X152400Y68950D03*
Y83450D03*
Y107050D03*
Y121550D03*
X165100Y68950D03*
Y83450D03*
X264400Y206150D03*
Y220650D03*
X271900Y495750D03*
Y510250D03*
X312300Y503250D03*
Y517750D03*
X401400Y206150D03*
Y220650D03*
X444100Y1123050D03*
Y1137550D03*
X445900Y1059050D03*
Y1073550D03*
X464700Y716450D03*
Y730950D03*
X490100Y716450D03*
Y730950D03*
X595800Y510850D03*
Y525350D03*
X597000Y1112750D03*
Y1127250D03*
X597400Y795850D03*
Y810350D03*
X601100Y957150D03*
Y971650D03*
X604600Y262150D03*
Y276650D03*
X610000Y1112750D03*
Y1127250D03*
X610400Y510850D03*
Y525350D03*
X612000Y795850D03*
Y810350D03*
X614400Y957150D03*
Y971650D03*
X623500Y510850D03*
Y525350D03*
X624700Y1112750D03*
Y1127250D03*
X624900Y795850D03*
Y810350D03*
X628800Y957150D03*
Y971650D03*
X630000Y262150D03*
Y276650D03*
X638000Y482950D03*
Y497450D03*
Y510850D03*
Y525350D03*
X639300Y1081850D03*
Y1096350D03*
Y1112750D03*
Y1127250D03*
X639500Y765450D03*
Y779950D03*
Y795850D03*
Y810350D03*
X641800Y927750D03*
Y942250D03*
Y957150D03*
Y971650D03*
X651900Y482950D03*
Y497450D03*
Y510850D03*
Y525350D03*
X652800Y765450D03*
Y779950D03*
Y795850D03*
Y810350D03*
X653800Y1081850D03*
Y1096350D03*
Y1112750D03*
Y1127250D03*
X654000Y927750D03*
Y942250D03*
Y957150D03*
Y971650D03*
X665500Y454650D03*
Y469150D03*
Y482950D03*
Y497450D03*
Y510850D03*
Y525350D03*
X666700Y900550D03*
Y915050D03*
Y927750D03*
Y942250D03*
Y957150D03*
Y971650D03*
X667500Y734650D03*
Y749150D03*
Y765450D03*
Y779950D03*
Y795850D03*
Y810350D03*
X667900Y1053950D03*
Y1068450D03*
Y1081850D03*
Y1096350D03*
Y1112750D03*
Y1127250D03*
X668100Y262150D03*
Y276650D03*
X693100Y261250D03*
Y275750D03*
X736600Y157850D03*
Y172350D03*
X749300Y157850D03*
Y172350D03*
X754500Y880950D03*
Y895450D03*
X754800Y447650D03*
Y462150D03*
X754900Y481150D03*
Y495650D03*
Y509950D03*
Y524450D03*
Y761850D03*
Y776350D03*
X755000Y1105250D03*
Y1119750D03*
X755300Y789950D03*
Y804450D03*
Y917250D03*
Y931750D03*
Y943950D03*
Y958450D03*
Y1076350D03*
Y1090850D03*
X755400Y1037050D03*
Y1051550D03*
X756100Y721650D03*
Y736150D03*
X762000Y157850D03*
Y172350D03*
X767700Y422450D03*
Y436950D03*
Y447650D03*
Y462150D03*
X769100Y855150D03*
Y869650D03*
Y880950D03*
Y895450D03*
X770000Y1010950D03*
Y1025450D03*
Y1037050D03*
Y1051550D03*
X771100Y695550D03*
Y710050D03*
Y721650D03*
Y736150D03*
X774700Y157850D03*
Y172350D03*
X787400Y157850D03*
Y172350D03*
X790900Y880950D03*
Y895450D03*
X791600Y1037050D03*
Y1051550D03*
X793200Y721750D03*
Y736250D03*
X793700Y447650D03*
Y462150D03*
X805100Y1065250D03*
Y1079750D03*
X805300Y880950D03*
Y895450D03*
Y909350D03*
Y923850D03*
Y1037050D03*
Y1051550D03*
X806800Y447650D03*
Y462150D03*
X807000Y474550D03*
Y489050D03*
Y721750D03*
Y736250D03*
Y750650D03*
Y765150D03*
X815100Y563350D03*
Y577850D03*
X817400Y839650D03*
Y854150D03*
X819100Y996450D03*
Y1010950D03*
X819500Y1037050D03*
Y1051550D03*
Y1065250D03*
Y1079750D03*
Y1091550D03*
Y1106050D03*
X819700Y447650D03*
Y462150D03*
Y474550D03*
Y489050D03*
Y503650D03*
Y518150D03*
Y721750D03*
Y736250D03*
Y750650D03*
Y765150D03*
Y776850D03*
Y791350D03*
X819900Y880950D03*
Y895450D03*
Y909350D03*
Y923850D03*
Y937250D03*
Y951750D03*
X822000Y1154950D03*
Y1169450D03*
X830600Y839650D03*
Y854150D03*
X831300Y563350D03*
Y577850D03*
X832600Y996450D03*
Y1010950D03*
X837400Y1154950D03*
Y1169450D03*
X891800Y549650D03*
Y564150D03*
X892500Y822750D03*
Y837250D03*
X892700Y985450D03*
Y999950D03*
X893150Y1140596D03*
Y1155096D03*
X907300Y446750D03*
Y461250D03*
Y502750D03*
Y517250D03*
Y722650D03*
Y737150D03*
Y750650D03*
Y765150D03*
X907500Y779550D03*
Y794050D03*
X907700Y474550D03*
Y489050D03*
X909400Y881450D03*
Y895950D03*
Y908650D03*
Y923150D03*
Y938050D03*
Y952550D03*
X910000Y1065250D03*
Y1079750D03*
X910300Y1036450D03*
Y1050950D03*
X910600Y1091550D03*
Y1106050D03*
X920200Y446750D03*
Y461250D03*
X922300Y474550D03*
Y489050D03*
X922700Y722650D03*
Y737150D03*
Y750650D03*
Y765150D03*
X924000Y881450D03*
Y895950D03*
Y908650D03*
Y923150D03*
X924600Y1065250D03*
Y1079750D03*
X924900Y1036450D03*
Y1050950D03*
X927100Y284850D03*
Y299350D03*
X934400Y446750D03*
Y461250D03*
X936900Y722650D03*
Y737150D03*
X938100Y881450D03*
Y895950D03*
Y1036450D03*
Y1050950D03*
X949400Y446750D03*
Y461250D03*
X951300Y881450D03*
Y895950D03*
X952500Y284850D03*
Y299350D03*
Y722350D03*
Y736850D03*
Y1036450D03*
Y1050950D03*
X1043300Y804750D03*
Y819250D03*
X1056200Y804750D03*
Y819250D03*
X1120500Y762450D03*
Y776950D03*
G54D16*
X43550Y612100D03*
Y799900D03*
X58050Y612100D03*
Y799900D03*
X157850Y612100D03*
X167850Y799900D03*
X172350Y612100D03*
X182350Y799900D03*
X259450Y579000D03*
Y706000D03*
X273950Y579000D03*
Y706000D03*
X421150Y985000D03*
X435650D03*
X555250Y977500D03*
X569750D03*
X586950Y630000D03*
Y655400D03*
X601450Y630000D03*
Y655400D03*
X640450Y680800D03*
X654950D03*
X693950Y630000D03*
Y655400D03*
X703950Y862000D03*
Y1020400D03*
X704150Y428100D03*
Y704700D03*
X708450Y630000D03*
Y655400D03*
X718450Y862000D03*
Y1020400D03*
X718650Y428100D03*
Y704700D03*
X852750Y818800D03*
X853950Y543700D03*
X855650Y974200D03*
X858484Y1134803D03*
X867250Y818800D03*
X868450Y543700D03*
X870150Y974200D03*
X872984Y1134803D03*
X1048087Y1073695D03*
X1062587D03*
X1078487D03*
X1080150Y772200D03*
X1092850Y863800D03*
X1092987Y1073695D03*
X1094650Y772200D03*
X1107350Y863800D03*
G54D17*
X144700Y1019500D03*
Y1047500D03*
Y1093200D03*
Y1121200D03*
Y1146900D03*
Y1174900D03*
X261300Y1090700D03*
Y1118700D03*
X261500Y994500D03*
Y1022500D03*
Y1040700D03*
Y1068700D03*
Y1146900D03*
Y1174900D03*
X282500Y418500D03*
Y446500D03*
X433900Y926000D03*
Y954000D03*
X787500Y536000D03*
Y564000D03*
Y811000D03*
Y839000D03*
Y968500D03*
Y996500D03*
Y1128500D03*
Y1156500D03*
G54D18*
X423900Y1121550D03*
Y1139050D03*
X426100Y1057550D03*
Y1075050D03*
G54D19*
X118500Y785000D03*
X146500D03*
X196000Y557500D03*
Y592500D03*
X224000Y557500D03*
Y592500D03*
X338500Y707500D03*
X366500D03*
X936000Y172500D03*
Y210000D03*
Y247500D03*
X964000Y172500D03*
Y210000D03*
Y247500D03*
G54D20*
X176100Y266800D03*
Y298800D03*
Y320800D03*
Y342800D03*
Y381100D03*
Y403100D03*
Y425100D03*
Y457100D03*
X246100Y266800D03*
Y298800D03*
Y320800D03*
Y342800D03*
Y381100D03*
Y403100D03*
Y425100D03*
Y457100D03*
X320600Y266800D03*
Y298800D03*
Y320800D03*
Y342800D03*
Y381100D03*
Y403100D03*
Y425100D03*
Y457100D03*
Y571600D03*
Y593600D03*
Y615600D03*
Y647600D03*
Y762100D03*
Y794100D03*
Y816100D03*
Y838100D03*
X390600Y266800D03*
Y298800D03*
Y320800D03*
Y342800D03*
Y381100D03*
Y403100D03*
Y425100D03*
Y457100D03*
Y571600D03*
Y593600D03*
Y615600D03*
Y647600D03*
Y762100D03*
Y794100D03*
Y816100D03*
Y838100D03*
G54D21*
X176500Y1003300D03*
Y1079500D03*
Y1155700D03*
G54D22*
X229500Y1003300D03*
Y1079500D03*
Y1155700D03*
G54D23*
X847300Y566300D03*
Y571300D03*
Y576300D03*
Y581300D03*
X847400Y840000D03*
Y845000D03*
Y850000D03*
Y855000D03*
X847800Y994600D03*
Y999600D03*
Y1004600D03*
Y1009600D03*
X850937Y1155540D03*
Y1160540D03*
Y1165540D03*
Y1170540D03*
X876300Y566300D03*
Y571300D03*
Y576300D03*
Y581300D03*
X876400Y840000D03*
Y845000D03*
Y850000D03*
Y855000D03*
X876800Y994600D03*
Y999600D03*
Y1004600D03*
Y1009600D03*
X879937Y1155540D03*
Y1160540D03*
Y1165540D03*
Y1170540D03*
G54D24*
X854300Y559300D03*
Y588300D03*
X854400Y833000D03*
Y862000D03*
X854800Y987600D03*
Y1016600D03*
X857937Y1148540D03*
Y1177540D03*
X859300Y559300D03*
Y588300D03*
X859400Y833000D03*
Y862000D03*
X859800Y987600D03*
Y1016600D03*
X862937Y1148540D03*
Y1177540D03*
X864300Y559300D03*
Y588300D03*
X864400Y833000D03*
Y862000D03*
X864800Y987600D03*
Y1016600D03*
X867937Y1148540D03*
Y1177540D03*
X869300Y559300D03*
Y588300D03*
X869400Y833000D03*
Y862000D03*
X869800Y987600D03*
Y1016600D03*
X872937Y1148540D03*
Y1177540D03*
G54D25*
X861800Y573800D03*
X861900Y847500D03*
X862300Y1002100D03*
X865437Y1163040D03*
G54D26*
X472950Y226400D03*
X505650Y289900D03*
X561150D03*
X568450Y226400D03*
X777350Y268350D03*
X832850D03*
G54D27*
X485700Y201750D03*
X495700D03*
X505700D03*
X515700D03*
X518400Y265250D03*
X525700Y201750D03*
X528400Y265250D03*
X535700Y201750D03*
X538400Y265250D03*
X545700Y201750D03*
X548400Y265250D03*
X555700Y201750D03*
X790100Y243700D03*
X800100D03*
X810100D03*
X820100D03*
G54D28*
X38200Y683900D03*
Y753900D03*
Y866700D03*
Y936700D03*
X60200Y683900D03*
Y753900D03*
Y866700D03*
Y936700D03*
X82200Y683900D03*
Y753900D03*
Y866700D03*
Y936700D03*
X114200Y683900D03*
Y753900D03*
Y866700D03*
Y936700D03*
X152500Y683900D03*
Y753900D03*
Y866700D03*
Y936700D03*
X174500Y683900D03*
Y753900D03*
Y866700D03*
Y936700D03*
X196500Y683900D03*
Y753900D03*
Y866700D03*
Y936700D03*
X228500Y683900D03*
Y753900D03*
Y866700D03*
Y936700D03*
G54D29*
X684700Y447800D03*
Y460500D03*
Y473200D03*
Y485900D03*
Y498600D03*
Y511300D03*
Y524000D03*
Y723700D03*
Y736400D03*
Y749100D03*
Y761800D03*
Y774500D03*
Y787200D03*
Y799900D03*
Y882400D03*
Y895100D03*
Y907800D03*
Y920500D03*
Y933200D03*
Y945900D03*
Y958600D03*
Y1038300D03*
Y1051000D03*
Y1063700D03*
Y1076400D03*
Y1089100D03*
Y1101800D03*
Y1114500D03*
X737700Y447800D03*
Y460500D03*
Y473200D03*
Y485900D03*
Y498600D03*
Y511300D03*
Y524000D03*
Y723700D03*
Y736400D03*
Y749100D03*
Y761800D03*
Y774500D03*
Y787200D03*
Y799900D03*
Y882400D03*
Y895100D03*
Y907800D03*
Y920500D03*
Y933200D03*
Y945900D03*
Y958600D03*
Y1038300D03*
Y1051000D03*
Y1063700D03*
Y1076400D03*
Y1089100D03*
Y1101800D03*
Y1114500D03*
X837100Y447800D03*
Y460500D03*
Y473200D03*
Y485900D03*
Y498600D03*
Y511300D03*
Y524000D03*
Y723700D03*
Y736400D03*
Y749100D03*
Y761800D03*
Y774500D03*
Y787200D03*
Y799900D03*
Y882400D03*
Y895100D03*
Y907800D03*
Y920500D03*
Y933200D03*
Y945900D03*
Y958600D03*
Y1038300D03*
Y1051000D03*
Y1063700D03*
Y1076400D03*
Y1089100D03*
Y1101800D03*
Y1114500D03*
X890100Y447800D03*
Y460500D03*
Y473200D03*
Y485900D03*
Y498600D03*
Y511300D03*
Y524000D03*
Y723700D03*
Y736400D03*
Y749100D03*
Y761800D03*
Y774500D03*
Y787200D03*
Y799900D03*
Y882400D03*
Y895100D03*
Y907800D03*
Y920500D03*
Y933200D03*
Y945900D03*
Y958600D03*
Y1038300D03*
Y1051000D03*
Y1063700D03*
Y1076400D03*
Y1089100D03*
Y1101800D03*
Y1114500D03*
X1073400Y806450D03*
Y819150D03*
Y831850D03*
Y844550D03*
X1126400Y806450D03*
Y819150D03*
Y831850D03*
Y844550D03*
G54D30*
X60500Y178900D03*
Y206500D03*
Y234100D03*
Y261700D03*
Y289300D03*
Y316900D03*
Y344500D03*
X88900Y165100D03*
Y192700D03*
Y220300D03*
Y247900D03*
Y275500D03*
Y303100D03*
Y330700D03*
Y358300D03*
X152400Y38100D03*
X177800D03*
X228600Y63500D03*
Y88900D03*
X388800Y68400D03*
Y119200D03*
X402600Y93800D03*
X416400Y68400D03*
Y119200D03*
X430200Y93800D03*
X444000Y68400D03*
Y119200D03*
X457800Y93800D03*
X471600Y68400D03*
Y119200D03*
X485400Y93800D03*
X499200Y68400D03*
Y119200D03*
X513000Y93800D03*
X526800Y68400D03*
Y119200D03*
X533400Y391900D03*
Y417300D03*
Y442700D03*
Y468100D03*
Y493500D03*
Y518900D03*
Y544300D03*
Y569700D03*
Y620500D03*
Y645900D03*
Y671300D03*
Y696700D03*
Y722100D03*
Y747500D03*
Y772900D03*
Y798300D03*
Y849100D03*
Y874500D03*
Y899900D03*
Y925300D03*
Y950700D03*
Y976100D03*
Y1001500D03*
Y1026900D03*
X540600Y93800D03*
X554400Y68400D03*
Y119200D03*
X568200Y93800D03*
X582000Y68400D03*
Y119200D03*
X595800Y93800D03*
X609600Y68400D03*
Y119200D03*
X623400Y93800D03*
X637200Y68400D03*
Y119200D03*
X651000Y93800D03*
X664800Y68400D03*
Y119200D03*
X678600Y93800D03*
X692400Y68400D03*
Y119200D03*
X706200Y93800D03*
X720000Y68400D03*
Y119200D03*
X733800Y93800D03*
X747600Y68400D03*
Y119200D03*
X761400Y93800D03*
X775200Y68400D03*
Y119200D03*
X789000Y93800D03*
X802800Y68400D03*
Y119200D03*
X816600Y93800D03*
X830400Y68400D03*
Y119200D03*
X1016000Y442700D03*
Y468100D03*
Y493500D03*
Y518900D03*
Y544300D03*
Y569700D03*
Y595100D03*
Y620500D03*
Y671300D03*
Y696700D03*
Y722100D03*
Y747500D03*
Y772900D03*
Y798300D03*
Y823700D03*
Y849100D03*
Y889700D03*
Y915100D03*
Y940500D03*
Y965900D03*
Y991300D03*
Y1016700D03*
Y1042100D03*
Y1067500D03*
Y1092900D03*
Y1118300D03*
G54D31*
X618950Y623200D03*
Y629700D03*
Y636200D03*
Y642700D03*
Y649200D03*
Y655700D03*
Y662200D03*
X676450Y623200D03*
Y629700D03*
Y636200D03*
Y642700D03*
Y649200D03*
Y655700D03*
Y662200D03*
G54D32*
X75400Y1094200D03*
G54D33*
Y1155700D03*
G54D34*
X25400Y1122700D03*
G54D35*
X466900Y879350D03*
Y974850D03*
X469400Y993650D03*
Y1089150D03*
Y1115250D03*
Y1170750D03*
X480400Y450250D03*
Y565750D03*
X1067564Y978894D03*
Y1034394D03*
X1087500Y511050D03*
Y606550D03*
X1090000Y353250D03*
Y408750D03*
G54D36*
X455750Y463000D03*
Y473000D03*
Y483000D03*
Y493000D03*
Y503000D03*
Y513000D03*
Y523000D03*
Y533000D03*
Y543000D03*
Y553000D03*
X491550Y892100D03*
Y902100D03*
Y912100D03*
Y922100D03*
Y932100D03*
Y942100D03*
Y952100D03*
Y962100D03*
X494050Y1006400D03*
Y1016400D03*
Y1026400D03*
Y1036400D03*
Y1046400D03*
Y1056400D03*
Y1066400D03*
Y1076400D03*
Y1128000D03*
Y1138000D03*
Y1148000D03*
Y1158000D03*
X1062850Y523800D03*
Y533800D03*
Y543800D03*
Y553800D03*
Y563800D03*
Y573800D03*
Y583800D03*
Y593800D03*
X1065350Y366000D03*
Y376000D03*
Y386000D03*
Y396000D03*
X1092214Y991644D03*
Y1001644D03*
Y1011644D03*
Y1021644D03*
G54D37*
X584200Y341100D03*
Y366500D03*
X609600Y341100D03*
Y366500D03*
X635000Y341100D03*
Y366500D03*
X660400Y341100D03*
Y366500D03*
X685800Y341100D03*
Y366500D03*
X711200Y341100D03*
Y366500D03*
X736600Y341100D03*
Y366500D03*
X762000Y341100D03*
Y366500D03*
Y644400D03*
Y669800D03*
X787400Y341100D03*
Y366500D03*
Y644400D03*
Y669800D03*
X812800Y341100D03*
Y366500D03*
Y644400D03*
Y669800D03*
X838200Y341100D03*
Y366500D03*
X863600Y341100D03*
Y366500D03*
X889000Y341100D03*
Y366500D03*
X914400Y341100D03*
Y366500D03*
X939800Y341100D03*
Y366500D03*
X965200Y341100D03*
Y366500D03*
X990600Y341100D03*
Y366500D03*
X1016000Y341100D03*
Y366500D03*
G54D38*
X450850Y748200D03*
Y801200D03*
X463550Y748200D03*
Y801200D03*
X476250Y748200D03*
Y801200D03*
X488950Y748200D03*
Y801200D03*
X603250Y189400D03*
Y242400D03*
X615950Y189400D03*
Y242400D03*
X628650Y189400D03*
Y242400D03*
X641350Y189400D03*
Y242400D03*
X666750Y189400D03*
Y242400D03*
X679450Y189400D03*
Y242400D03*
X692150Y189400D03*
Y242400D03*
X704850Y189400D03*
Y242400D03*
G54D39*
X324800Y952500D03*
Y1054100D03*
Y1155700D03*
X350200Y952500D03*
Y1054100D03*
Y1155700D03*
X375600Y952500D03*
Y1054100D03*
Y1155700D03*
G54D40*
X711200Y315700D03*
X736600D03*
X762000D03*
X787400D03*
X812800D03*
X838200D03*
X863600D03*
X889000D03*
G54D41*
X304100Y93800D03*
X915100D03*
G54D70*
X220000Y170000D03*
X940000Y650000D03*
X1020000Y1160000D03*
G54D71*
X169450Y203200D03*
Y228600D03*
X174250Y495300D03*
Y520700D03*
X201950Y203200D03*
Y228600D03*
X206750Y495300D03*
Y520700D03*
X221300Y215900D03*
X231300Y520700D03*
X241300Y206400D03*
Y225400D03*
X251300Y511200D03*
Y530200D03*
X313950Y203200D03*
Y228600D03*
X332900Y498500D03*
Y517500D03*
X346450Y203200D03*
Y228600D03*
X352900Y508000D03*
X358300Y215900D03*
X364750Y495300D03*
Y520700D03*
X378300Y206400D03*
Y225400D03*
X397250Y495300D03*
Y520700D03*
G54D72*
X41300Y632700D03*
Y820500D03*
X50800Y652700D03*
Y840500D03*
X60300Y632700D03*
Y820500D03*
X88900Y626450D03*
Y658950D03*
Y814250D03*
Y846750D03*
X114300Y626450D03*
Y658950D03*
Y814250D03*
Y846750D03*
X155600Y632700D03*
Y820500D03*
X165100Y652700D03*
Y840500D03*
X174600Y632700D03*
Y820500D03*
X203200Y626450D03*
Y658950D03*
Y814250D03*
Y846750D03*
X228600Y626450D03*
Y658950D03*
Y814250D03*
Y846750D03*
X257200Y599600D03*
Y726600D03*
X266700Y619600D03*
Y644150D03*
Y676650D03*
Y746600D03*
Y771150D03*
Y803650D03*
X276200Y599600D03*
Y726600D03*
X292100Y644150D03*
Y676650D03*
Y771150D03*
Y803650D03*
G54D73*
X74700Y95500D03*
Y428700D03*
M02*
