; Version : LOCAL
; Job     : F:\ECADdesigns\1405165-01-00-A\PCB\1405165-01-00-A.pcb
; User    : AT01PC650:at10682
; Date    : Tue May 09 13:00:11 2023
; Format  : 5.4 / Absolute / MM / Leading
; Contents: Thru / Drill / Plated
; RSF Elektronik
M48
METRIC,TZ
FMAT,2
ICI,OFF
T08C0.3000
T06C0.8000
T02C1.0000
T05C1.2000
T01C3.0000
T07C3.1000
%
M71
G90
G93X0Y0
T08
X444000Y41023
X152664Y60561
X161950Y121550
X130150
X646139Y145037
X688127Y142085
X762201Y148414
X775434Y148028
X790044Y148414
X953950Y172500
X946050
X797742Y172350
X726258
X638716Y158009
X587126Y162773
X574894Y168075
X309682Y160241
Y169853
X309227Y188401
X309682Y178997
X953950Y210000
X946050
X387850Y225400
X336900Y203200
X250850Y225400
X211500Y203200
X133508Y234100
X157310Y230429
X212292Y228600
X264400Y228950
X356792Y228600
X401400Y240400
X649400Y242400
X712900
X946050Y247500
X953950
X679353Y254187
X679342Y275658
X615876Y254187
X614358Y276314
X369825Y266800
X266980
X631096Y285175
X693454Y284355
X940315Y284826
X990587Y284834
X114100Y320303
Y330670
X200371Y342800
X227482
X340515
X375176Y344772
X1052227Y375516
X231169Y380625
X190951Y380367
X305614Y381010
X407139Y381100
X664270Y395409
X693001Y383027
Y391718
Y399468
X988464Y402935
X1052227Y386053
Y395602
X351726Y425100
X338201
X282612Y408368
X231169Y425063
X190951Y424547
X161258Y457100
X282495Y456584
X305758Y457100
X655939Y455021
X781431Y447447
X793700Y438997
X878550Y447800
X949400Y437315
X1089109Y468016
X1061537Y480230
X724921Y477986
X655950Y469150
X164650Y495011
X281502Y495750
X312300Y494898
X333073Y489217
X354408Y497841
X573194Y500765
X578674Y495285
X628450Y482950
X696250Y489719
X764450Y495650
X785469Y496349
X797450Y489050
X848947Y498600
X878501
X917242Y503175
X933252Y489050
X1049604Y523799
X916850Y517250
X876660Y511300
X861098Y509717
X854305Y520715
X810150Y518150
X586235Y510534
X355200Y520700
X260850Y530200
X164506Y521589
X185897Y557307
X234142
X364942Y553025
X375792Y552835
X566629Y544279
X589054Y542626
X601248Y538182
X768450Y536000
X815625Y554928
X901350Y549650
X1049206Y533748
X903002Y564150
X897617Y572346
X884969Y581300
X768450Y564000
X424355Y578726
X385682Y562800
X335442Y571600
X282574Y578396
X185897Y592234
X234142Y592322
X285250Y599600
X305617Y593021
X407460Y592877
X653454Y603650
X661655Y600094
X720087Y589717
X859300Y596600
X876047Y595386
X665600Y634646
X430918Y630356
X414918Y630517
X367686Y615654
X335896Y615094
X218758Y626450
X189000
X180702Y612100
X104458Y626450
X73557Y626533
X66402Y612100
X305758Y647600
X594597Y644829
X607436Y639414
X664805Y657523
X725296Y662131
X672200Y669776
X562664Y683382
X463331Y681870
X440939Y671511
X409501Y671700
Y684700
X301150Y676650
X256858
X207309Y671613
X70689Y696710
X282323Y706000
X328366Y707405
X376655Y707537
X608084Y697776
X641189Y690352
X655118
X816091Y704901
X868890Y710505
X876290Y729006
X849973Y729808
X691750Y712074
X672796Y712009
X657950Y734650
X478877Y716450
X427417Y716747
X267150Y726600
X104608Y753900
X218908
X442800Y748200
X476250Y759802
X635714Y753376
X643660Y742107
X657950Y749150
X696250Y754650
X726196Y742966
X749716Y749100
X1093756Y749709
X1121193Y751203
X969274Y763416
X933159Y765150
X917224Y779550
X916696Y787300
X878357Y774274
X878228Y786392
X848919Y774249
X797450Y765150
X785540Y772244
X766886Y773470
X629877Y765204
X556874Y768846
X156550Y785000
X107972Y784447
X74228Y799900
X200872
X228600Y803908
X256858Y803650
X301150
X587850Y795850
X766501Y811000
X810150Y791350
X842200Y811317
X855219Y799550
X877450Y803627
X902050Y810750
X910052Y805797
X923649Y796101
X932279Y794050
X1043300Y795856
X1091659Y823812
X1043695Y827766
X964221Y833805
X946145Y835550
X946012Y822550
X924150Y831719
X902050Y822550
Y837250
X830281Y828850
X817164Y830110
X751900Y826450
X724501Y836450
X650568Y818650
Y832050
X405580Y814892
X212250Y814250
X128016
X97950
X407092Y839167
X646897Y849615
X766501Y839000
X924150Y850502
X946669Y848550
X964194Y850926
X965456Y863260
X980928Y850902
X1114850Y844550
X1115839Y863626
X951906Y872985
X893659Y871288
X879237Y887593
X870391Y881357
X859585Y875724
X851929Y870364
X794927Y871682
X658876Y877047
X186908Y866700
X91792
X658662Y906614
X696250Y889350
X725148Y907800
X779357Y894295
X958970Y902295
X933806Y923150
X919024Y938050
X876369Y933200
X849019
X795750Y923850
X785919Y929549
X764850Y931750
X632250Y927750
X504600Y932100
X478589Y937253
X414850Y926000
X218908Y936700
X174500Y920483
X104608Y936700
X477708Y962301
X591287Y957172
X810350Y951750
X855065Y953203
X862046Y944090
X878515Y945304
X918950Y952550
X902262Y985475
X818878Y988076
X768450Y968500
X578050Y977500
X412850Y985000
X145045Y1009396
X452719Y1004726
X507100Y1006400
X766501Y996500
X902321Y999977
X964562Y1011205
X980826
X964624Y1020116
X951983Y1027162
X875082Y1038300
X861002Y1024900
X852562
X849677Y1038300
X796145Y1026773
X242450Y1022500
X145045Y1057610
X479393Y1066400
X510596Y1056400
X658350Y1053950
X751204Y1063700
X1101309Y1073767
X1039759Y1073826
X935884Y1079750
X920288Y1091550
X877075Y1089100
X850120
X795550Y1079750
X786271Y1086764
X658350Y1068450
X647227Y1070686
X629198Y1082280
X507401Y1077894
X446325Y1082470
X444225Y1114729
X587450Y1112750
X764414Y1095473
X809950Y1106050
X859021Y1114893
X861534Y1100393
X877992Y1101800
X920150Y1106050
X902700Y1140596
X768450Y1128500
X507100Y1138000
X260849Y1128895
X145074Y1131385
X507152Y1158000
X507401Y1148000
X768450Y1156500
X822000Y1146034
X903019Y1155096
X847791Y1181034
X261317Y1185059
X144762
T06
X889000Y315700
X863600
X838200
X812800
X787400
X762000
X736600
X711200
T02
X152400Y38100
X177800
X830400Y68400
X802800
X775200
X747600
X720000
X692400
X664800
X637200
X609600
X582000
X554400
X526800
X499200
X471600
X444000
X416400
X388800
X228600Y63500
Y88900
X402600Y93800
X430200
X457800
X485400
X513000
X540600
X568200
X595800
X623400
X651000
X678600
X706200
X733800
X761400
X789000
X816600
X830400Y119200
X802800
X775200
X747600
X720000
X692400
X664800
X637200
X609600
X582000
X554400
X526800
X499200
X471600
X444000
X416400
X388800
X88900Y165100
X60500Y178900
X88900Y192700
Y220300
X60500Y206500
Y234100
X88900Y247900
Y275500
X60500Y261700
Y289300
X88900Y303100
X60500Y316900
Y344500
X88900Y330700
X584200Y341100
X609600
X635000
X660400
X685800
X711200
X736600
X762000
X787400
X812800
X838200
X863600
X889000
X914400
X939800
X965200
X990600
X1016000
Y366500
X990600
X965200
X939800
X914400
X889000
X863600
X838200
X812800
X787400
X762000
X736600
X711200
X685800
X660400
X635000
X609600
X584200
X88900Y358300
X533400Y391900
Y417300
Y442700
X1016000
Y468100
X533400
Y493500
X1016000
Y518900
X533400
Y544300
X1016000
Y569700
X533400
X1016000Y595100
Y620500
X533400
Y645900
X762000Y644400
X787400
X812800
X1016000Y671300
X812800Y669800
X787400
X762000
X533400Y671300
Y696700
X1016000
Y722100
X533400
Y747500
X1016000
Y772900
X533400
Y798300
X1016000
Y823700
X533400Y849100
X1016000
X533400Y874500
Y899900
X1016000Y889700
Y915100
X533400Y925300
Y950700
X1016000Y940500
Y965900
X533400Y976100
Y1001500
X1016000Y991300
Y1016700
X533400Y1026900
X1016000Y1042100
Y1067500
Y1092900
Y1118300
T05
X324800Y952500
X350200
X375600
X324800Y1054100
X350200
X375600
X324800Y1155700
X350200
X375600
T01
X74700Y95500
Y428700
T07
X304100Y93800
X915100
T00
M30
